<svg width="24" height="24" viewBox="0 0 24 24" xmlns="http://www.w3.org/2000/svg"><path fill-rule="evenodd" clip-rule="evenodd" d="M21 19.429v-5.73c0-.409-.066-.803-.19-1.172l-1.577-6.092a2.893 2.893 0 0 0-2.47-2.163C15.138 4.09 14.3 4 12 4s-3.138.09-4.763.272a2.893 2.893 0 0 0-2.47 2.163L3.19 12.526c-.123.37-.19.764-.189 1.172v5.73c0 .316.252.572.562.572h2.374a.564.564 0 0 0 .545-.433L7 18h10l.518 1.567a.564.564 0 0 0 .546.433h2.373c.311 0 .563-.256.563-.571zM16.63 5.274c.72.083 1.318.624 1.502 1.36L19.1 10.5a3.42 3.42 0 0 0-1.173-.4c-1.73-.253-3.705-.4-5.927-.4-2.222 0-4.197.147-5.927.4-.421.062-.816.2-1.173.4l.968-3.865c.184-.737.781-1.278 1.501-1.361C8.946 5.092 9.742 5 12 5s3.054.092 4.63.274zM18.5 15a1.5 1.5 0 1 0 0-3 1.5 1.5 0 0 0 0 3zM7 13.5a1.5 1.5 0 1 1-3 0 1.5 1.5 0 0 1 3 0z" fill="currentColor"></path><path d="M22.702 9c.331 0 .6.272.6.607v.5a1.21 1.21 0 0 1-1.07 1.203l-.5.057a.605.605 0 0 1-.657-.456l-.287-1.16A.605.605 0 0 1 21.375 9h1.327z" fill="currentColor"></path><path d="M1.3 9c-.331 0-.6.272-.6.607v.5c0 .615.46 1.132 1.071 1.203l.5.057a.605.605 0 0 0 .657-.456l.287-1.16A.605.605 0 0 0 2.627 9H1.3z" fill="currentColor"></path></svg>