<svg width="25" height="25" viewBox="0 0 25 25" fill="none" xmlns="http://www.w3.org/2000/svg">
<path fill-rule="evenodd" clip-rule="evenodd" d="M11.0121 4.0106C7.45584 4.60247 4.57209 7.48935 4.00084 11.03C3.70334 12.8937 3.99209 14.66 4.71584 16.1737L4.71959 16.1812C4.82647 16.4125 4.89647 16.6812 4.93084 16.9343C4.96459 17.1831 4.97209 17.4806 4.90709 17.7606L4.90584 17.7643L4.27084 20.4312L4.26709 20.4456C4.22334 20.6143 4.24209 20.6931 4.25272 20.72C4.27959 20.7318 4.36272 20.7544 4.54397 20.71L4.55834 20.7062C5.34272 20.53 6.25522 20.3087 6.91022 20.15C7.02458 20.1224 7.13896 20.0949 7.25334 20.0675C7.72084 19.9737 8.35147 20.0406 8.80772 20.2643C10.4879 21.053 12.3755 21.2864 14.1971 20.9306H14.199C17.6715 20.275 20.2933 17.645 20.9427 14.1743C20.9345 14.1019 20.9363 14.0287 20.9483 13.9568C21.9133 8.06997 16.904 3.06497 11.0121 4.0106ZM4.24209 20.7137L4.24522 20.7162C4.24405 20.7156 4.24299 20.7147 4.24209 20.7137ZM22.5246 13.9862C23.5015 7.1381 17.6277 1.36497 10.7621 2.4681L10.7577 2.46872C6.54397 3.16872 3.13709 6.5731 2.45772 10.7818V10.7831C2.11022 12.9587 2.44522 15.0443 3.30334 16.8425C3.33147 16.9031 3.36459 17.0131 3.38209 17.1437C3.40084 17.2793 3.39334 17.3712 3.38584 17.405V17.4056L2.75147 20.0625C2.59459 20.6793 2.67147 21.3525 3.14522 21.8262C3.61709 22.2981 4.28897 22.3787 4.90647 22.23C5.70397 22.0506 6.62897 21.8262 7.28147 21.6681L7.57084 21.5981C7.72647 21.5712 7.99584 21.6068 8.11897 21.6681L8.13772 21.6775C10.1174 22.6079 12.3418 22.8841 14.489 22.4662C18.6765 21.6756 21.8327 18.4394 22.5202 14.22C22.5333 14.1412 22.534 14.0625 22.5233 13.9868L22.5246 13.9862Z" fill="#808080"/>
</svg>
