<svg width="25" height="25" viewBox="0 0 25 25" fill="none" xmlns="http://www.w3.org/2000/svg">
<path fill-rule="evenodd" clip-rule="evenodd" d="M20.2557 20.5299C20.2557 19.6705 19.8119 18.8659 19.0148 18.1997C18.5045 17.7732 17.851 17.4053 17.0971 17.1113C18.0899 15.8601 19.0836 14.4693 19.8437 13.0983C20.6449 11.6531 21.2004 10.2061 21.2004 8.95743C21.2004 4.15995 17.2976 0.257141 12.5001 0.257141C7.70256 0.257141 3.7998 4.15995 3.7998 8.95743C3.7998 10.2061 4.35527 11.6531 5.1565 13.0983C5.9166 14.4693 6.91025 15.8601 7.90302 17.1113C7.14922 17.4053 6.4957 17.7732 5.9854 18.1997C5.18832 18.8659 4.74446 19.6705 4.74446 20.5299C4.74449 21.7633 5.65227 22.82 7.03967 23.5569C8.43398 24.2974 10.3567 24.7429 12.5001 24.7429C14.6435 24.7429 16.5662 24.2974 17.9605 23.5569C19.3479 22.82 20.2557 21.7633 20.2557 20.5299ZM12.9686 21.7179C13.1099 21.5797 14.5561 20.1573 16.1963 18.2118C17.032 18.4889 17.7074 18.8514 18.1763 19.2509C18.6711 19.6725 18.9148 20.1157 18.9148 20.5299C18.9148 21.1578 18.3475 21.8665 17.2102 22.4352C15.9269 23.0769 14.219 23.403 12.4999 23.4029C10.7808 23.4029 9.07308 23.0768 7.78994 22.4352C6.65266 21.8665 6.08531 21.1578 6.08531 20.5299C6.08531 20.1157 6.32897 19.6725 6.82378 19.2509C7.29267 18.8514 7.96811 18.4889 8.8038 18.2118C10.4439 20.1573 11.8901 21.5797 12.0315 21.7179C12.2919 21.9723 12.708 21.9725 12.9686 21.7179ZM12.5001 1.59799C16.5579 1.59799 19.8595 4.8996 19.8595 8.95743C19.8595 9.75918 19.5508 10.7253 19.0322 11.7746C18.5155 12.8201 17.7998 13.9299 17.0068 15.0142C15.4832 17.0971 13.6859 19.0698 12.5 20.2863C11.3136 19.0694 9.51628 17.0965 7.99289 15.0135C7.19994 13.9293 6.48436 12.8195 5.96778 11.7741C5.44934 10.725 5.14065 9.759 5.14065 8.95743C5.14065 4.8996 8.44226 1.59799 12.5001 1.59799ZM12.4996 12.9342C15.2136 12.9342 17.4211 10.7267 17.4211 8.01273C17.4211 5.2988 15.2136 3.09122 12.4996 3.09122C9.78571 3.09122 7.57812 5.29885 7.57812 8.01273C7.57812 10.7266 9.78571 12.9342 12.4996 12.9342ZM12.4996 4.43207C14.4739 4.43207 16.0803 6.03854 16.0803 8.01273C16.0803 9.98691 14.4738 11.5934 12.4996 11.5934C10.5255 11.5934 8.91897 9.98691 8.91897 8.01273C8.91897 6.03854 10.5254 4.43207 12.4996 4.43207Z" fill="#808080"/>
</svg>
