<svg width="25" height="25" viewBox="0 0 25 25" fill="none" xmlns="http://www.w3.org/2000/svg">
<g clip-path="url(#clip0_416_3273)">
<path d="M18.3208 16.3516C18.103 16.1331 17.8443 15.9597 17.5594 15.8414C17.2745 15.7231 16.9691 15.6622 16.6606 15.6622C16.3521 15.6622 16.0467 15.7231 15.7618 15.8414C15.4769 15.9597 15.2182 16.1331 15.0005 16.3516L13.8677 17.4844C12.5922 16.6749 11.4105 15.7264 10.3442 14.6562C9.27635 13.588 8.32804 12.4065 7.51609 11.1328L8.6489 9.99999C8.8674 9.78225 9.04077 9.52352 9.15906 9.23863C9.27736 8.95374 9.33825 8.64831 9.33825 8.33984C9.33825 8.03137 9.27736 7.72593 9.15906 7.44104C9.04077 7.15616 8.8674 6.89742 8.6489 6.67968L6.43796 4.47656C6.2233 4.25733 5.96675 4.0835 5.68356 3.9654C5.40038 3.84729 5.09634 3.78732 4.78953 3.78906C4.48053 3.7883 4.17443 3.84865 3.88884 3.96664C3.60326 4.08463 3.34382 4.25792 3.12546 4.47656L2.06296 5.53124C1.55653 6.07575 1.17857 6.72683 0.956841 7.43661C0.735118 8.1464 0.675275 8.89685 0.781713 9.63281C1.03171 12.5625 2.95359 16.0859 5.91453 19.0547C8.87546 22.0234 12.438 23.9375 15.3677 24.2187C15.5862 24.2304 15.8053 24.2304 16.0239 24.2187C16.6545 24.2452 17.2841 24.1455 17.8757 23.9255C18.4674 23.7055 19.0091 23.3696 19.4692 22.9375L20.5239 21.875C20.7425 21.6566 20.9158 21.3972 21.0338 21.1116C21.1518 20.826 21.2122 20.5199 21.2114 20.2109C21.2131 19.9041 21.1532 19.6001 21.0351 19.3169C20.917 19.0337 20.7431 18.7772 20.5239 18.5625L18.3208 16.3516ZM19.4223 20.7734L18.3598 21.8281C17.967 22.1555 17.5084 22.3947 17.0151 22.5295C16.5217 22.6643 16.0052 22.6915 15.5005 22.6094C12.9614 22.3906 9.72703 20.5937 7.05515 17.9219C4.38327 15.25 2.5864 12.0391 2.34421 9.49999C2.25996 8.99524 2.28618 8.47822 2.42105 7.98457C2.55593 7.49093 2.79626 7.03241 3.12546 6.64062L4.22703 5.57812C4.30003 5.50571 4.3866 5.44843 4.48179 5.40955C4.57697 5.37067 4.67889 5.35096 4.78171 5.35156C4.88453 5.35096 4.98645 5.37067 5.08164 5.40955C5.17683 5.44843 5.2634 5.50571 5.3364 5.57812L7.54734 7.81249C7.69285 7.95887 7.77452 8.15688 7.77452 8.36327C7.77452 8.56967 7.69285 8.76768 7.54734 8.91406L5.98484 10.4766C5.86257 10.5982 5.784 10.7569 5.76139 10.9279C5.73878 11.0989 5.7734 11.2726 5.85984 11.4219C6.7953 13.0144 7.93229 14.4796 9.24265 15.7812C10.5443 17.0916 12.0095 18.2286 13.602 19.1641C13.7513 19.2505 13.925 19.2851 14.096 19.2625C14.267 19.2399 14.4257 19.1613 14.5473 19.0391L16.1098 17.4766C16.2562 17.331 16.4542 17.2494 16.6606 17.2494C16.867 17.2494 17.065 17.331 17.2114 17.4766L19.4223 19.6875C19.4947 19.7605 19.552 19.8471 19.5909 19.9423C19.6298 20.0374 19.6495 20.1394 19.6489 20.2422C19.644 20.4417 19.5629 20.6318 19.4223 20.7734ZM20.7817 4.21093C19.696 3.12106 18.4052 2.2569 16.9839 1.66826C15.5626 1.07962 14.0388 0.778156 12.5005 0.781243C12.2933 0.781243 12.0945 0.863553 11.948 1.01007C11.8015 1.15658 11.7192 1.35529 11.7192 1.56249C11.7192 1.76969 11.8015 1.96841 11.948 2.11492C12.0945 2.26143 12.2933 2.34374 12.5005 2.34374C13.8415 2.34369 15.1692 2.60921 16.407 3.12498C17.6449 3.64074 18.7683 4.39654 19.7126 5.34876C20.6568 6.30098 21.4031 7.43076 21.9084 8.67291C22.4137 9.91506 22.6681 11.245 22.6567 12.5859C22.6567 12.7931 22.739 12.9918 22.8855 13.1384C23.032 13.2849 23.2308 13.3672 23.438 13.3672C23.6452 13.3672 23.8439 13.2849 23.9904 13.1384C24.1369 12.9918 24.2192 12.7931 24.2192 12.5859C24.2342 11.0312 23.9377 9.48919 23.3474 8.05082C22.757 6.61246 21.8846 5.30684 20.7817 4.21093Z" fill="#808080"/>
<path d="M16.3359 8.67969C16.7793 9.12038 17.1301 9.64531 17.3675 10.2236C17.605 10.8018 17.7244 11.4218 17.7188 12.0469C17.7188 12.2541 17.8011 12.4528 17.9476 12.5993C18.0941 12.7458 18.2928 12.8281 18.5 12.8281C18.7072 12.8281 18.9059 12.7458 19.0524 12.5993C19.1989 12.4528 19.2812 12.2541 19.2812 12.0469C19.2916 11.2196 19.1376 10.3984 18.8281 9.6311C18.5187 8.86378 18.0599 8.16553 17.4785 7.57687C16.8971 6.9882 16.2046 6.52083 15.4412 6.20186C14.6778 5.8829 13.8586 5.71869 13.0312 5.71875C12.824 5.71875 12.6253 5.80106 12.4788 5.94757C12.3323 6.09409 12.25 6.2928 12.25 6.5C12.25 6.7072 12.3323 6.90591 12.4788 7.05243C12.6253 7.19894 12.824 7.28125 13.0312 7.28125C13.6469 7.28589 14.2557 7.41178 14.8227 7.65172C15.3897 7.89167 15.9039 8.24098 16.3359 8.67969Z" fill="#808080"/>
</g>
<defs>
<clipPath id="clip0_416_3273">
<rect width="25" height="25" fill="white"/>
</clipPath>
</defs>
</svg>
