<svg width="38" height="29" viewBox="0 0 38 29" fill="none" xmlns="http://www.w3.org/2000/svg">
<path class="target" d="M36.9502 5.60669C36.6038 3.69462 34.9532 2.30218 33.0377 1.86746C30.1713 1.25954 24.8665 0.824829 19.1269 0.824829C13.3907 0.824829 8.00091 1.25954 5.13111 1.86746C3.21905 2.30218 1.5651 3.60632 1.21868 5.60669C0.868874 7.78026 0.522461 10.8233 0.522461 14.7357C0.522461 18.6481 0.868874 21.6911 1.30359 23.8647C1.6534 25.7768 3.30395 27.1692 5.21602 27.6039C8.25902 28.2118 13.4756 28.6465 19.2152 28.6465C24.9548 28.6465 30.1713 28.2118 33.2143 27.6039C35.1264 27.1692 36.777 25.8651 37.1268 23.8647C37.4732 21.6911 37.9079 18.5598 37.9962 14.7357C37.8196 10.8233 37.3849 7.78026 36.9502 5.60669ZM14.4333 20.8217V8.64969L25.0397 14.7357L14.4333 20.8217Z" fill="#002358"/>
</svg>
