<svg width="38" height="28" viewBox="0 0 38 28" fill="none" xmlns="http://www.w3.org/2000/svg">
<g clip-path="url(#clip0_416_5253)">
<path d="M36.4277 4.60669C36.0813 2.69462 34.4307 1.30218 32.5153 0.867464C29.6489 0.259543 24.344 -0.175171 18.6044 -0.175171C12.8682 -0.175171 7.47845 0.259543 4.60865 0.867464C2.69659 1.30218 1.04264 2.60632 0.696222 4.60669C0.346413 6.78026 0 9.82326 0 13.7357C0 17.6481 0.346413 20.6911 0.781128 22.8647C1.13094 24.7768 2.78149 26.1692 4.69356 26.6039C7.73656 27.2118 12.9531 27.6465 18.6927 27.6465C24.4323 27.6465 29.6489 27.2118 32.6919 26.6039C34.6039 26.1692 36.2545 24.8651 36.6043 22.8647C36.9507 20.6911 37.3854 17.5598 37.4737 13.7357C37.2971 9.82326 36.8624 6.78026 36.4277 4.60669ZM13.9109 19.8217V7.64969L24.5172 13.7357L13.9109 19.8217Z" fill="#E4EEFF"/>
</g>
<defs>
<clipPath id="clip0_416_5253">
<rect width="37" height="28" fill="white" transform="translate(0.319336)"/>
</clipPath>
</defs>
</svg>
