<svg width="35" height="26" viewBox="0 0 35 26" fill="none" xmlns="http://www.w3.org/2000/svg">
<path fill-rule="evenodd" clip-rule="evenodd" d="M1.19802 0.87868C0.319336 1.75736 0.319336 3.17157 0.319336 6V20C0.319336 22.8284 0.319336 24.2426 1.19802 25.1213C2.0767 26 3.49091 26 6.31934 26H28.3193C31.1478 26 32.562 26 33.4407 25.1213C34.3193 24.2426 34.3193 22.8284 34.3193 20V6C34.3193 3.17157 34.3193 1.75736 33.4407 0.87868C32.562 0 31.1478 0 28.3193 0H6.31934C3.49091 0 2.0767 0 1.19802 0.87868ZM26.2514 18.571L23.6278 18.6076C23.6278 18.6076 23.0619 18.7185 22.3216 18.2073C21.9336 17.9408 21.5544 17.5056 21.193 17.0907L21.192 17.0896L21.1917 17.0892C20.6393 16.455 20.1288 15.869 19.6924 16.0064C18.9608 16.2396 18.9832 17.8182 18.9832 17.8182C18.9832 17.8182 18.9888 18.0963 18.8216 18.2775C18.737 18.3688 18.6141 18.413 18.5074 18.4343C18.386 18.4586 18.2851 18.4531 18.2851 18.4531H17.1097C17.1097 18.4531 14.5171 18.6679 12.2319 16.2859C9.7432 13.6891 7.54383 8.56414 7.54383 8.56414C7.54383 8.56414 7.41453 8.24108 7.55221 8.07539C7.70819 7.89281 8.12809 7.88716 8.12809 7.88716L10.9371 7.87313C10.9371 7.87313 11.2011 7.91949 11.3921 8.0599C11.5481 8.1751 11.6365 8.39141 11.6365 8.39141C11.6365 8.39141 12.0902 9.54164 12.6927 10.5838C13.8668 12.6146 14.4117 13.0599 14.8105 12.8422C15.392 12.5247 15.2177 9.97139 15.2177 9.97139C15.2177 9.97139 15.2292 9.04445 14.9256 8.63152C14.6899 8.30993 14.2458 8.21441 14.052 8.19053C13.8935 8.16945 14.1518 7.80149 14.4889 7.6358C14.9945 7.38857 15.8879 7.37453 16.9426 7.38438C17.7641 7.39282 18.0016 7.44337 18.3217 7.522C19.0679 7.70257 19.0447 8.28012 18.9947 9.52633L18.9946 9.52722L18.9943 9.53482C18.9794 9.90557 18.9621 10.3352 18.9621 10.831C18.9621 10.9403 18.959 11.0566 18.9558 11.1763L18.9555 11.1869C18.938 11.8255 18.9182 12.5557 19.3371 12.8253C19.5535 12.9643 20.0801 12.8463 21.3934 10.6077C22.0183 9.54583 22.486 8.29869 22.486 8.29869C22.486 8.29869 22.5886 8.07679 22.7471 7.98128C22.9102 7.88297 23.1292 7.91383 23.1292 7.91383L26.0858 7.89561C26.0858 7.89561 26.9734 7.78885 27.1179 8.19193C27.2696 8.6133 26.7864 9.59784 25.5788 11.2088C25.3276 11.5439 25.1047 11.8326 24.9103 12.0844C24.217 12.9826 23.886 13.4113 23.9268 13.801C23.9644 14.157 24.3124 14.4803 24.9785 15.0991L25.0224 15.1399C26.4742 16.4894 26.8626 17.1987 26.9568 17.3706C26.9646 17.385 26.9704 17.3956 26.9746 17.4025C27.625 18.4854 26.2514 18.571 26.2514 18.571Z" fill="#E4EEFF"/>
</svg>
