<svg width="34" height="26" viewBox="0 0 34 26" fill="none" xmlns="http://www.w3.org/2000/svg">
<path class="target" fill-rule="evenodd" clip-rule="evenodd" d="M0.87868 0.87868C0 1.75736 0 3.17157 0 6V20C0 22.8284 0 24.2426 0.87868 25.1213C1.75736 26 3.17157 26 6 26H28C30.8284 26 32.2426 26 33.1213 25.1213C34 24.2426 34 22.8284 34 20V6C34 3.17157 34 1.75736 33.1213 0.87868C32.2426 0 30.8284 0 28 0H6C3.17157 0 1.75736 0 0.87868 0.87868ZM25.9321 18.571L23.3085 18.6076C23.3085 18.6076 22.7425 18.7185 22.0023 18.2073C21.6142 17.9408 21.2351 17.5056 20.8736 17.0907L20.8726 17.0896L20.8723 17.0892C20.3199 16.455 19.8094 15.869 19.3731 16.0064C18.6415 16.2396 18.6639 17.8182 18.6639 17.8182C18.6639 17.8182 18.6694 18.0963 18.5023 18.2775C18.4177 18.3688 18.2948 18.413 18.1881 18.4343C18.0666 18.4586 17.9658 18.4531 17.9658 18.4531H16.7904C16.7904 18.4531 14.1978 18.6679 11.9126 16.2859C9.42386 13.6891 7.22449 8.56414 7.22449 8.56414C7.22449 8.56414 7.09519 8.24108 7.23288 8.07539C7.38885 7.89281 7.80876 7.88716 7.80876 7.88716L10.6178 7.87313C10.6178 7.87313 10.8817 7.91949 11.0728 8.0599C11.2287 8.1751 11.3171 8.39141 11.3171 8.39141C11.3171 8.39141 11.7708 9.54164 12.3734 10.5838C13.5475 12.6146 14.0924 13.0599 14.4912 12.8422C15.0727 12.5247 14.8984 9.97139 14.8984 9.97139C14.8984 9.97139 14.9098 9.04445 14.6063 8.63152C14.3705 8.30993 13.9265 8.21441 13.7327 8.19053C13.5742 8.16945 13.8325 7.80149 14.1696 7.6358C14.6751 7.38857 15.5685 7.37453 16.6233 7.38438C17.4448 7.39282 17.6823 7.44337 18.0024 7.522C18.7485 7.70257 18.7253 8.28012 18.6753 9.52633L18.6753 9.52722L18.675 9.53482C18.6601 9.90557 18.6428 10.3352 18.6428 10.831C18.6428 10.9403 18.6397 11.0566 18.6365 11.1763L18.6362 11.1869C18.6186 11.8255 18.5988 12.5557 19.0177 12.8253C19.2342 12.9643 19.7607 12.8463 21.0741 10.6077C21.699 9.54583 22.1666 8.29869 22.1666 8.29869C22.1666 8.29869 22.2693 8.07679 22.4278 7.98128C22.5909 7.88297 22.8098 7.91383 22.8098 7.91383L25.7665 7.89561C25.7665 7.89561 26.654 7.78885 26.7986 8.19193C26.9502 8.6133 26.4671 9.59784 25.2594 11.2088C25.0083 11.5439 24.7854 11.8326 24.591 12.0844C23.8976 12.9826 23.5666 13.4113 23.6075 13.801C23.645 14.157 23.9931 14.4803 24.6592 15.0991L24.7031 15.1399C26.1549 16.4894 26.5433 17.1987 26.6374 17.3706C26.6453 17.385 26.6511 17.3956 26.6553 17.4025C27.3056 18.4854 25.9321 18.571 25.9321 18.571Z" fill="#002358"/>
</svg>
