<svg width="60" height="68" viewBox="0 0 60 68" fill="none" xmlns="http://www.w3.org/2000/svg">
<g clip-path="url(#clip0_731_4587)">
<g filter="url(#filter0_f_731_4587)">
<path d="M30.51 56.523C30.5041 56.6516 30.4488 56.7729 30.3557 56.8618C30.2625 56.9506 30.1387 57.0001 30.01 57C29.72 57 29.5 56.79 29.49 56.523C29.345 53.355 27.734 51.306 24.658 50.376C14.53 47.968 7 38.863 7 28C7 15.297 17.297 5 30 5C42.703 5 53 15.297 53 28C53 38.863 45.47 47.968 35.342 50.376C32.266 51.306 30.655 53.356 30.512 56.523H30.51Z" fill="#FF3333"/>
</g>
<path d="M30.51 56.523C30.5041 56.6516 30.4488 56.7729 30.3557 56.8618C30.2625 56.9506 30.1387 57.0001 30.01 57C29.72 57 29.5 56.79 29.49 56.523C29.345 53.355 27.734 51.306 24.658 50.376C14.53 47.968 7 38.863 7 28C7 15.297 17.297 5 30 5C42.703 5 53 15.297 53 28C53 38.863 45.47 47.968 35.342 50.376C32.266 51.306 30.655 53.356 30.512 56.523H30.51Z" fill="#FF3333"/>
<path d="M30 68C27.79 68 26 66.21 26 64C26 61.79 27.79 60 30 60C32.21 60 34 61.79 34 64C34 66.21 32.21 68 30 68Z" fill="white"/>
<path fill-rule="evenodd" clip-rule="evenodd" d="M29.9997 66C30.266 66.006 30.5309 65.9588 30.7787 65.861C31.0266 65.7633 31.2524 65.617 31.4429 65.4308C31.6334 65.2446 31.7848 65.0222 31.8882 64.7766C31.9916 64.5311 32.0449 64.2674 32.0449 64.001C32.045 63.7346 31.9918 63.4708 31.8886 63.2253C31.7853 62.9797 31.634 62.7572 31.4436 62.5709C31.2532 62.3846 31.0274 62.2382 30.7797 62.1403C30.5319 62.0425 30.267 61.9951 30.0007 62.001C29.4781 62.0125 28.9809 62.2282 28.6153 62.6018C28.2498 62.9754 28.0451 63.4773 28.0449 64C28.0448 64.5227 28.2493 65.0246 28.6146 65.3984C28.98 65.7722 29.4772 65.9882 29.9997 66Z" fill="#FF3333"/>
<path fill-rule="evenodd" clip-rule="evenodd" d="M39 35.429V29.699C39 29.29 38.934 28.896 38.81 28.527L37.233 22.435C37.089 21.8666 36.7756 21.3554 36.3345 20.9692C35.8934 20.5829 35.3454 20.3398 34.763 20.272C33.138 20.09 32.3 20 30 20C27.7 20 26.862 20.09 25.237 20.272C24.6546 20.3398 24.1065 20.5829 23.6654 20.9692C23.2243 21.3554 22.911 21.8666 22.767 22.435L21.19 28.526C21.067 28.896 21 29.29 21.001 29.698V35.428C21.001 35.744 21.253 36 21.563 36H23.937C24.0632 35.9992 24.1854 35.9561 24.2843 35.8776C24.3831 35.7991 24.4527 35.6897 24.482 35.567L25 34H35L35.518 35.567C35.5473 35.6899 35.6171 35.7994 35.7161 35.8779C35.8151 35.9564 35.9376 35.9994 36.064 36H38.437C38.748 36 39 35.744 39 35.429ZM34.63 21.274C35.35 21.357 35.948 21.898 36.132 22.634L37.1 26.5C36.7366 26.2963 36.3391 26.1608 35.927 26.1C34.197 25.847 32.222 25.7 30 25.7C27.778 25.7 25.803 25.847 24.073 26.1C23.652 26.162 23.257 26.3 22.9 26.5L23.868 22.635C24.052 21.898 24.649 21.357 25.369 21.274C26.946 21.092 27.742 21 30 21C32.258 21 33.054 21.092 34.63 21.274ZM36.5 31C36.8978 31 37.2793 30.842 37.5606 30.5607C37.842 30.2794 38 29.8978 38 29.5C38 29.1022 37.842 28.7206 37.5606 28.4393C37.2793 28.158 36.8978 28 36.5 28C36.1022 28 35.7206 28.158 35.4393 28.4393C35.158 28.7206 35 29.1022 35 29.5C35 29.8978 35.158 30.2794 35.4393 30.5607C35.7206 30.842 36.1022 31 36.5 31ZM25 29.5C25 29.697 24.9612 29.892 24.8858 30.074C24.8104 30.256 24.6999 30.4214 24.5606 30.5607C24.4214 30.6999 24.256 30.8104 24.074 30.8858C23.892 30.9612 23.697 31 23.5 31C23.303 31 23.108 30.9612 22.926 30.8858C22.744 30.8104 22.5786 30.6999 22.4393 30.5607C22.3 30.4214 22.1896 30.256 22.1142 30.074C22.0388 29.892 22 29.697 22 29.5C22 29.1022 22.158 28.7206 22.4393 28.4393C22.7206 28.158 23.1022 28 23.5 28C23.8978 28 24.2793 28.158 24.5606 28.4393C24.842 28.7206 25 29.1022 25 29.5Z" fill="white"/>
<path d="M40.7024 25C41.0334 25 41.3024 25.272 41.3024 25.607V26.107C41.3027 26.4039 41.1938 26.6905 40.9965 26.9123C40.7992 27.1341 40.5273 27.2757 40.2324 27.31L39.7324 27.367C39.5861 27.3839 39.4387 27.347 39.3178 27.263C39.1969 27.1791 39.1107 27.0539 39.0754 26.911L38.7884 25.751C38.7662 25.6618 38.7646 25.5688 38.7838 25.479C38.8029 25.3891 38.8423 25.3048 38.8988 25.2324C38.9554 25.16 39.0277 25.1015 39.1103 25.0612C39.1929 25.021 39.2835 25 39.3754 25H40.7024Z" fill="white"/>
<path d="M19.3002 25C18.9692 25 18.7002 25.272 18.7002 25.607V26.107C18.7002 26.722 19.1602 27.239 19.7712 27.31L20.2712 27.367C20.4174 27.3839 20.5648 27.347 20.6858 27.263C20.8067 27.1791 20.8929 27.0539 20.9282 26.911L21.2152 25.751C21.2374 25.6618 21.2389 25.5686 21.2198 25.4787C21.2006 25.3888 21.1611 25.3044 21.1044 25.232C21.0478 25.1596 20.9753 25.1011 20.8926 25.0609C20.8099 25.0207 20.7191 24.9999 20.6272 25H19.3002Z" fill="white"/>
</g>
<defs>
<filter id="filter0_f_731_4587" x="1" y="-1" width="58" height="64" filterUnits="userSpaceOnUse" color-interpolation-filters="sRGB">
<feFlood flood-opacity="0" result="BackgroundImageFix"/>
<feBlend mode="normal" in="SourceGraphic" in2="BackgroundImageFix" result="shape"/>
<feGaussianBlur stdDeviation="3" result="effect1_foregroundBlur_731_4587"/>
</filter>
<clipPath id="clip0_731_4587">
<rect width="60" height="68" fill="white"/>
</clipPath>
</defs>
</svg>
