<svg width="32" height="37" viewBox="0 0 32 37" fill="none" xmlns="http://www.w3.org/2000/svg">
<path fill-rule="evenodd" clip-rule="evenodd" d="M16 0.942288C20.8352 0.899498 25.6257 1.85937 30.0586 3.75974L30.0743 3.76662C30.6488 4.02468 31.138 4.44165 31.4806 4.96982C31.8227 5.49702 32.0037 6.11182 31.9999 6.74012V18.242C31.9999 21.1763 31.3396 24.6978 29.2362 28.031C27.1262 31.3749 23.6073 34.4599 18.0103 36.5742C16.716 37.0632 15.2839 37.0631 13.9897 36.5742C8.3923 34.4568 4.8726 31.3846 2.7625 28.0471C0.658798 24.7197 5.80328e-05 21.1994 5.80328e-05 18.242V6.74022C-0.00372197 6.11182 0.177238 5.49702 0.519348 4.96982C0.862048 4.44165 1.35116 4.02468 1.92574 3.76662L1.94142 3.75974C6.3743 1.85937 11.1648 0.899498 16 0.942288ZM1.00009 6.73692H2.0001V18.242C2.0001 20.9103 2.5944 24.0386 4.453 26.9783C6.3051 29.9078 9.4574 32.7214 14.6969 34.7034C15.5356 35.0201 16.4649 35.0201 17.3035 34.7032C22.5388 32.7256 25.6914 29.9009 27.5448 26.9637C29.4049 24.0159 29.9999 20.885 29.9999 18.242V6.72962C30.0017 6.49342 29.9339 6.26032 29.8029 6.05842C29.673 5.85832 29.4859 5.69632 29.2616 5.59412C25.0839 3.80458 20.5679 2.90075 16.0091 2.94229H15.9909C11.4321 2.90075 6.9161 3.80458 2.7384 5.59412C2.5141 5.69642 2.327 5.85832 2.1971 6.05842C2.0661 6.26032 1.99832 6.49342 2 6.72962L1.00009 6.73692Z" fill="#000C1D"/>
<path d="M9.67188 17.0156L15.3055 22.1372L24.2093 11.9478" stroke="#000C1D" stroke-width="2"/>
</svg>
