<svg width="51" height="50" viewBox="0 0 51 50" fill="none" xmlns="http://www.w3.org/2000/svg">
<rect x="0.240967" width="50" height="50" rx="10" fill="#086AFF"/>
<path d="M19.5546 19.1479H16.038C15.824 19.1479 15.6189 19.0629 15.4676 18.9116C15.3164 18.7604 15.2314 18.5552 15.2314 18.3413V12.0016C15.2314 11.7877 15.3164 11.5826 15.4676 11.4313C15.6189 11.28 15.824 11.1951 16.038 11.1951H19.5949C19.8089 11.1951 20.014 11.28 20.1653 11.4313C20.3165 11.5826 20.4015 11.7877 20.4015 12.0016V18.3413C20.4017 18.4507 20.3795 18.559 20.3365 18.6596C20.2935 18.7601 20.2304 18.8509 20.1512 18.9264C20.072 19.0018 19.9782 19.0604 19.8757 19.0984C19.7731 19.1365 19.6639 19.1533 19.5546 19.1479ZM16.8042 17.5347H18.748V12.8082H16.8445L16.8042 17.5347Z" fill="white"/>
<path d="M34.4438 19.1479H30.8788C30.6649 19.1479 30.4597 19.063 30.3085 18.9117C30.1572 18.7604 30.0722 18.5553 30.0722 18.3414V12.0017C30.0722 11.7878 30.1572 11.5826 30.3085 11.4314C30.4597 11.2801 30.6649 11.1951 30.8788 11.1951H34.4438C34.6578 11.1951 34.8629 11.2801 35.0142 11.4314C35.1654 11.5826 35.2504 11.7878 35.2504 12.0017V18.3414C35.2504 18.5553 35.1654 18.7604 35.0142 18.9117C34.8629 19.063 34.6578 19.1479 34.4438 19.1479ZM31.6853 17.5348H33.6373V12.8083H31.6853V17.5348Z" fill="white"/>
<path d="M19.5545 38.8039H16.0378C15.8239 38.8039 15.6188 38.7189 15.4675 38.5676C15.3163 38.4164 15.2313 38.2112 15.2313 37.9973V31.6657C15.2313 31.4518 15.3163 31.2466 15.4675 31.0954C15.6188 30.9441 15.8239 30.8591 16.0378 30.8591H19.5948C19.8087 30.8591 20.0139 30.9441 20.1651 31.0954C20.3164 31.2466 20.4014 31.4518 20.4014 31.6657V37.9973C20.4015 38.1067 20.3794 38.215 20.3364 38.3156C20.2934 38.4161 20.2303 38.5069 20.1511 38.5824C20.0719 38.6578 19.9781 38.7164 19.8755 38.7544C19.773 38.7925 19.6637 38.8093 19.5545 38.8039ZM16.8444 37.1907H18.7882V32.4723H16.8444V37.1907Z" fill="white"/>
<path d="M34.4438 38.8039H30.8788C30.6649 38.8039 30.4597 38.7189 30.3085 38.5676C30.1572 38.4164 30.0722 38.2112 30.0722 37.9973V31.6657C30.0722 31.4518 30.1572 31.2466 30.3085 31.0954C30.4597 30.9441 30.6649 30.8591 30.8788 30.8591H34.4438C34.6578 30.8591 34.8629 30.9441 35.0142 31.0954C35.1654 31.2466 35.2504 31.4518 35.2504 31.6657V37.9973C35.2504 38.2112 35.1654 38.4164 35.0142 38.5676C34.8629 38.7189 34.6578 38.8039 34.4438 38.8039ZM31.6853 37.1907H33.6373V32.4723H31.6853V37.1907Z" fill="white"/>
<path d="M25.2168 28.8267C24.4703 28.8267 23.7405 28.6054 23.1197 28.1906C22.4989 27.7758 22.0151 27.1863 21.7294 26.4965C21.4437 25.8068 21.369 25.0478 21.5146 24.3156C21.6603 23.5833 22.0198 22.9107 22.5477 22.3828C23.0756 21.8549 23.7482 21.4954 24.4804 21.3498C25.2127 21.2041 25.9716 21.2789 26.6614 21.5646C27.3511 21.8503 27.9407 22.3341 28.3554 22.9548C28.7702 23.5756 28.9916 24.3054 28.9916 25.052C28.9916 26.0531 28.5939 27.0132 27.886 27.7211C27.1781 28.429 26.218 28.8267 25.2168 28.8267ZM25.2168 22.8904C24.7893 22.8904 24.3714 23.0171 24.0159 23.2547C23.6604 23.4922 23.3834 23.8298 23.2198 24.2248C23.0562 24.6197 23.0134 25.0544 23.0968 25.4737C23.1802 25.893 23.386 26.2782 23.6884 26.5805C23.9907 26.8828 24.3758 27.0887 24.7951 27.1721C25.2144 27.2555 25.6491 27.2127 26.044 27.049C26.439 26.8854 26.7766 26.6084 27.0142 26.2529C27.2517 25.8974 27.3785 25.4795 27.3785 25.052C27.3785 24.4787 27.1507 23.9289 26.7453 23.5235C26.34 23.1181 25.7901 22.8904 25.2168 22.8904Z" fill="white"/>
<path d="M30.8789 35.5777H19.5868C19.3729 35.5777 19.1678 35.4927 19.0165 35.3414C18.8653 35.1902 18.7803 34.985 18.7803 34.7711C18.7803 34.5572 18.8653 34.352 19.0165 34.2008C19.1678 34.0495 19.3729 33.9645 19.5868 33.9645H30.8789C31.0928 33.9645 31.2979 34.0495 31.4492 34.2008C31.6005 34.352 31.6854 34.5572 31.6854 34.7711C31.6854 34.985 31.6005 35.1902 31.4492 35.3414C31.2979 35.4927 31.0928 35.5777 30.8789 35.5777Z" fill="white"/>
<path d="M30.8789 15.978H19.5868C19.3729 15.978 19.1678 15.893 19.0165 15.7417C18.8653 15.5905 18.7803 15.3853 18.7803 15.1714C18.7803 14.9575 18.8653 14.7523 19.0165 14.601C19.1678 14.4498 19.3729 14.3648 19.5868 14.3648H30.8789C31.0928 14.3648 31.2979 14.4498 31.4492 14.601C31.6005 14.7523 31.6854 14.9575 31.6854 15.1714C31.6854 15.3853 31.6005 15.5905 31.4492 15.7417C31.2979 15.893 31.0928 15.978 30.8789 15.978Z" fill="white"/>
<path d="M25.2165 22.8903C25.0026 22.8903 24.7975 22.8053 24.6462 22.654C24.4949 22.5028 24.41 22.2976 24.41 22.0837V15.1714C24.41 14.9575 24.4949 14.7523 24.6462 14.601C24.7975 14.4498 25.0026 14.3648 25.2165 14.3648C25.4305 14.3648 25.6356 14.4498 25.7869 14.601C25.9381 14.7523 26.0231 14.9575 26.0231 15.1714V22.0837C26.0231 22.2976 25.9381 22.5028 25.7869 22.654C25.6356 22.8053 25.4305 22.8903 25.2165 22.8903Z" fill="white"/>
<path d="M25.2165 35.5778C25.0026 35.5778 24.7975 35.4928 24.6462 35.3416C24.4949 35.1903 24.41 34.9852 24.41 34.7712V27.988C24.41 27.7741 24.4949 27.5689 24.6462 27.4176C24.7975 27.2664 25.0026 27.1814 25.2165 27.1814C25.4305 27.1814 25.6356 27.2664 25.7869 27.4176C25.9381 27.5689 26.0231 27.7741 26.0231 27.988V34.7712C26.0231 34.9852 25.9381 35.1903 25.7869 35.3416C25.6356 35.4928 25.4305 35.5778 25.2165 35.5778Z" fill="white"/>
</svg>
