<svg width="51" height="50" viewBox="0 0 51 50" fill="none" xmlns="http://www.w3.org/2000/svg">
<rect x="0.820312" width="50" height="50" rx="10" fill="#086AFF"/>
<path d="M25.8201 41.1013C34.7127 41.1013 41.9215 33.8925 41.9215 24.9999C41.9215 16.1074 34.7127 8.89856 25.8201 8.89856C16.9276 8.89856 9.71875 16.1074 9.71875 24.9999C9.71875 33.8925 16.9276 41.1013 25.8201 41.1013Z" stroke="white" stroke-linecap="round" stroke-linejoin="round"/>
<path d="M37.6226 21.4996C36.4045 15.8991 31.7701 12.3988 25.8196 12.3988C19.8691 12.3988 15.2347 15.8991 14.0166 21.4996L15.4167 21.9686C16.0572 22.1996 16.7426 22.2787 17.4189 22.1996L21.7453 21.6676C22.3922 21.5494 22.9989 21.2702 23.5094 20.8555C24.196 20.3723 25.015 20.1129 25.8546 20.1129C26.6942 20.1129 27.5133 20.3723 28.1998 20.8555C28.7103 21.2702 29.317 21.5494 29.964 21.6676L34.2903 22.1996C34.9553 22.2833 35.6305 22.2139 36.2645 21.9966L37.6646 21.5276" stroke="white" stroke-linecap="round" stroke-linejoin="round"/>
<path d="M25.8198 28.5003C27.3663 28.5003 28.62 27.2466 28.62 25.7C28.62 24.1535 27.3663 22.8998 25.8198 22.8998C24.2732 22.8998 23.0195 24.1535 23.0195 25.7C23.0195 27.2466 24.2732 28.5003 25.8198 28.5003Z" stroke="white" stroke-linecap="round" stroke-linejoin="round"/>
<path d="M23.7198 31.3005C22.6962 31.0647 21.7596 30.5458 21.0168 29.803C20.2741 29.0603 19.7552 28.1237 19.5194 27.1001H13.9189C14.619 32.6306 18.2663 36.3759 23.7198 37.314V31.3005Z" stroke="white" stroke-linecap="round" stroke-linejoin="round"/>
<path d="M27.9209 31.3005C28.9445 31.0647 29.8811 30.5458 30.6238 29.803C31.3666 29.0603 31.8855 28.1237 32.1213 27.1001H37.7217C37.0217 32.6306 33.3744 36.3759 27.9209 37.314V31.3005Z" stroke="white" stroke-linecap="round" stroke-linejoin="round"/>
</svg>
