<svg width="51" height="50" viewBox="0 0 51 50" fill="none" xmlns="http://www.w3.org/2000/svg">
<rect x="0.820312" width="50" height="50" rx="10" fill="#086AFF"/>
<path d="M20.1338 19.1479H16.6171C16.4032 19.1479 16.1981 19.0629 16.0468 18.9116C15.8955 18.7604 15.8105 18.5552 15.8105 18.3413V12.0016C15.8105 11.7877 15.8955 11.5826 16.0468 11.4313C16.1981 11.28 16.4032 11.1951 16.6171 11.1951H20.1741C20.388 11.1951 20.5932 11.28 20.7444 11.4313C20.8957 11.5826 20.9807 11.7877 20.9807 12.0016V18.3413C20.9808 18.4507 20.9587 18.559 20.9157 18.6596C20.8726 18.7601 20.8096 18.8509 20.7304 18.9264C20.6511 19.0018 20.5574 19.0604 20.4548 19.0984C20.3523 19.1365 20.243 19.1533 20.1338 19.1479ZM17.3834 17.5347H19.3272V12.8082H17.4237L17.3834 17.5347Z" fill="white"/>
<path d="M35.023 19.1479H31.4579C31.244 19.1479 31.0389 19.0629 30.8876 18.9116C30.7364 18.7604 30.6514 18.5552 30.6514 18.3413V12.0016C30.6514 11.7877 30.7364 11.5826 30.8876 11.4313C31.0389 11.28 31.244 11.1951 31.4579 11.1951H35.023C35.2369 11.1951 35.4421 11.28 35.5933 11.4313C35.7446 11.5826 35.8296 11.7877 35.8296 12.0016V18.3413C35.8296 18.5552 35.7446 18.7604 35.5933 18.9116C35.4421 19.0629 35.2369 19.1479 35.023 19.1479ZM32.2645 17.5347H34.2164V12.8082H32.2645V17.5347Z" fill="white"/>
<path d="M20.1338 38.8039H16.6171C16.4032 38.8039 16.1981 38.7189 16.0468 38.5676C15.8955 38.4164 15.8105 38.2112 15.8105 37.9973V31.6657C15.8105 31.4518 15.8955 31.2466 16.0468 31.0954C16.1981 30.9441 16.4032 30.8591 16.6171 30.8591H20.1741C20.388 30.8591 20.5932 30.9441 20.7444 31.0954C20.8957 31.2466 20.9807 31.4518 20.9807 31.6657V37.9973C20.9808 38.1067 20.9587 38.215 20.9157 38.3156C20.8726 38.4161 20.8096 38.5069 20.7304 38.5824C20.6511 38.6578 20.5574 38.7164 20.4548 38.7544C20.3523 38.7925 20.243 38.8093 20.1338 38.8039ZM17.4237 37.1907H19.3675V32.4723H17.4237V37.1907Z" fill="white"/>
<path d="M35.023 38.8039H31.4579C31.244 38.8039 31.0389 38.7189 30.8876 38.5676C30.7364 38.4164 30.6514 38.2112 30.6514 37.9973V31.6657C30.6514 31.4518 30.7364 31.2466 30.8876 31.0954C31.0389 30.9441 31.244 30.8591 31.4579 30.8591H35.023C35.2369 30.8591 35.4421 30.9441 35.5933 31.0954C35.7446 31.2466 35.8296 31.4518 35.8296 31.6657V37.9973C35.8296 38.2112 35.7446 38.4164 35.5933 38.5676C35.4421 38.7189 35.2369 38.8039 35.023 38.8039ZM32.2645 37.1907H34.2164V32.4723H32.2645V37.1907Z" fill="white"/>
<path d="M25.7963 28.8269C25.0497 28.8269 24.3199 28.6055 23.6991 28.1907C23.0784 27.7759 22.5945 27.1864 22.3088 26.4966C22.0231 25.8069 21.9484 25.0479 22.094 24.3157C22.2397 23.5834 22.5992 22.9109 23.1271 22.383C23.655 21.855 24.3276 21.4955 25.0598 21.3499C25.7921 21.2042 26.551 21.279 27.2408 21.5647C27.9305 21.8504 28.5201 22.3342 28.9348 22.955C29.3496 23.5757 29.571 24.3055 29.571 25.0521C29.571 26.0532 29.1733 27.0134 28.4654 27.7213C27.7575 28.4292 26.7974 28.8269 25.7963 28.8269ZM25.7963 22.8905C25.3687 22.8905 24.9508 23.0173 24.5953 23.2548C24.2399 23.4923 23.9628 23.8299 23.7992 24.2249C23.6356 24.6199 23.5928 25.0545 23.6762 25.4738C23.7596 25.8931 23.9655 26.2783 24.2678 26.5806C24.5701 26.8829 24.9552 27.0888 25.3745 27.1722C25.7938 27.2556 26.2285 27.2128 26.6235 27.0492C27.0184 26.8856 27.356 26.6085 27.5936 26.253C27.8311 25.8976 27.9579 25.4796 27.9579 25.0521C27.9579 24.4788 27.7301 23.929 27.3247 23.5236C26.9194 23.1182 26.3695 22.8905 25.7963 22.8905Z" fill="white"/>
<path d="M31.458 35.5777H20.1659C19.952 35.5777 19.7469 35.4928 19.5956 35.3415C19.4444 35.1902 19.3594 34.9851 19.3594 34.7712C19.3594 34.5573 19.4444 34.3521 19.5956 34.2008C19.7469 34.0496 19.952 33.9646 20.1659 33.9646H31.458C31.6719 33.9646 31.877 34.0496 32.0283 34.2008C32.1796 34.3521 32.2645 34.5573 32.2645 34.7712C32.2645 34.9851 32.1796 35.1902 32.0283 35.3415C31.877 35.4928 31.6719 35.5777 31.458 35.5777Z" fill="white"/>
<path d="M31.458 15.9779H20.1659C19.952 15.9779 19.7469 15.8929 19.5956 15.7417C19.4444 15.5904 19.3594 15.3852 19.3594 15.1713C19.3594 14.9574 19.4444 14.7522 19.5956 14.601C19.7469 14.4497 19.952 14.3647 20.1659 14.3647H31.458C31.6719 14.3647 31.877 14.4497 32.0283 14.601C32.1796 14.7522 32.2645 14.9574 32.2645 15.1713C32.2645 15.3852 32.1796 15.5904 32.0283 15.7417C31.877 15.8929 31.6719 15.9779 31.458 15.9779Z" fill="white"/>
<path d="M25.7958 22.8902C25.5819 22.8902 25.3767 22.8052 25.2255 22.654C25.0742 22.5027 24.9893 22.2976 24.9893 22.0836V15.1713C24.9893 14.9574 25.0742 14.7522 25.2255 14.601C25.3767 14.4497 25.5819 14.3647 25.7958 14.3647C26.0097 14.3647 26.2149 14.4497 26.3662 14.601C26.5174 14.7522 26.6024 14.9574 26.6024 15.1713V22.0836C26.6024 22.2976 26.5174 22.5027 26.3662 22.654C26.2149 22.8052 26.0097 22.8902 25.7958 22.8902Z" fill="white"/>
<path d="M25.7958 35.5778C25.5819 35.5778 25.3767 35.4928 25.2255 35.3416C25.0742 35.1903 24.9893 34.9852 24.9893 34.7712V27.988C24.9893 27.7741 25.0742 27.5689 25.2255 27.4176C25.3767 27.2664 25.5819 27.1814 25.7958 27.1814C26.0097 27.1814 26.2149 27.2664 26.3662 27.4176C26.5174 27.5689 26.6024 27.7741 26.6024 27.988V34.7712C26.6024 34.9852 26.5174 35.1903 26.3662 35.3416C26.2149 35.4928 26.0097 35.5778 25.7958 35.5778Z" fill="white"/>
</svg>
