<svg width="51" height="50" viewBox="0 0 51 50" fill="none" xmlns="http://www.w3.org/2000/svg">
<rect x="0.820312" width="50" height="50" rx="10" fill="#086AFF"/>
<path d="M35.8739 26.7685H15.8846C15.6233 26.7685 15.3727 26.6648 15.188 26.48C15.0032 26.2952 14.8994 26.0447 14.8994 25.7834V18.5817C14.8994 18.3204 15.0032 18.0698 15.188 17.8851C15.3727 17.7003 15.6233 17.5965 15.8846 17.5965H17.6973L18.9781 12.2076C19.0301 11.9871 19.1564 11.7914 19.3359 11.6532C19.5153 11.515 19.7369 11.4429 19.9633 11.449H31.8643C32.0906 11.4429 32.3122 11.515 32.4916 11.6532C32.6711 11.7914 32.7974 11.9871 32.8494 12.2076L34.1302 17.5965H35.9331C36.1943 17.5965 36.4449 17.7003 36.6297 17.8851C36.8145 18.0698 36.9182 18.3204 36.9182 18.5817V25.7834C36.9185 25.9179 36.8912 26.051 36.838 26.1745C36.7849 26.2981 36.707 26.4095 36.6091 26.5018C36.5113 26.5941 36.3956 26.6653 36.2691 26.7112C36.1427 26.7571 36.0082 26.7766 35.8739 26.7685ZM16.8698 24.7982H34.8888V19.5669H33.2928C33.0664 19.5729 32.8448 19.5008 32.6654 19.3626C32.486 19.2245 32.3596 19.0287 32.3076 18.8083L31.017 13.4193H20.7218L19.4411 18.8083C19.3891 19.0287 19.2627 19.2245 19.0833 19.3626C18.9039 19.5008 18.6823 19.5729 18.4559 19.5669H16.8501L16.8698 24.7982Z" fill="white"/>
<path d="M21.4808 29.2808H18.4071C18.1458 29.2808 17.8952 29.177 17.7104 28.9922C17.5257 28.8075 17.4219 28.5569 17.4219 28.2956V25.7834C17.4219 25.5221 17.5257 25.2715 17.7104 25.0868C17.8952 24.902 18.1458 24.7982 18.4071 24.7982C18.6683 24.7982 18.9189 24.902 19.1037 25.0868C19.2884 25.2715 19.3922 25.5221 19.3922 25.7834V27.3104H20.4956V25.7834C20.4956 25.5221 20.5994 25.2715 20.7842 25.0868C20.969 24.902 21.2195 24.7982 21.4808 24.7982C21.7421 24.7982 21.9927 24.902 22.1775 25.0868C22.3622 25.2715 22.466 25.5221 22.466 25.7834V28.2956C22.466 28.5569 22.3622 28.8075 22.1775 28.9922C21.9927 29.177 21.7421 29.2808 21.4808 29.2808Z" fill="white"/>
<path d="M33.3032 29.2808H30.2196C29.9583 29.2808 29.7077 29.177 29.5229 28.9922C29.3382 28.8075 29.2344 28.5569 29.2344 28.2956V25.7834C29.2344 25.5221 29.3382 25.2715 29.5229 25.0868C29.7077 24.902 29.9583 24.7982 30.2196 24.7982C30.4808 24.7982 30.7314 24.902 30.9162 25.0868C31.1009 25.2715 31.2047 25.5221 31.2047 25.7834V27.3104H32.318V25.7834C32.318 25.5221 32.4218 25.2715 32.6066 25.0868C32.7913 24.902 33.0419 24.7982 33.3032 24.7982C33.5645 24.7982 33.815 24.902 33.9998 25.0868C34.1846 25.2715 34.2884 25.5221 34.2884 25.7834V28.2956C34.2884 28.5569 34.1846 28.8075 33.9998 28.9922C33.815 29.177 33.5645 29.2808 33.3032 29.2808Z" fill="white"/>
<path d="M19.5299 23.2416C19.2961 23.2416 19.0675 23.1723 18.8731 23.0424C18.6787 22.9125 18.5271 22.7279 18.4376 22.5118C18.3482 22.2958 18.3248 22.0581 18.3704 21.8288C18.416 21.5995 18.5286 21.3888 18.6939 21.2235C18.8593 21.0581 19.0699 20.9455 19.2992 20.8999C19.5286 20.8543 19.7663 20.8777 19.9823 20.9672C20.1983 21.0567 20.383 21.2082 20.5129 21.4026C20.6428 21.597 20.7121 21.8256 20.7121 22.0594C20.7121 22.373 20.5875 22.6737 20.3658 22.8954C20.1441 23.1171 19.8434 23.2416 19.5299 23.2416ZM19.5299 21.2713C19.3712 21.2693 19.2156 21.3147 19.0829 21.4016C18.9501 21.4886 18.8463 21.6131 18.7847 21.7593C18.7231 21.9055 18.7065 22.0668 18.7369 22.2225C18.7674 22.3782 18.8436 22.5213 18.9558 22.6335C19.068 22.7457 19.2111 22.8219 19.3668 22.8523C19.5225 22.8828 19.6838 22.8662 19.83 22.8046C19.9762 22.743 20.1007 22.6392 20.1876 22.5064C20.2746 22.3737 20.32 22.2181 20.318 22.0594C20.318 21.9559 20.2976 21.8534 20.258 21.7578C20.2184 21.6622 20.1604 21.5753 20.0872 21.5021C20.014 21.4289 19.9271 21.3709 19.8315 21.3313C19.7359 21.2917 19.6334 21.2713 19.5299 21.2713Z" fill="white"/>
<path d="M32.3672 23.2417C32.2035 23.2567 32.0385 23.2374 31.8828 23.1851C31.727 23.1327 31.5838 23.0484 31.4624 22.9377C31.3411 22.8269 31.2441 22.692 31.1778 22.5417C31.1114 22.3913 31.0771 22.2288 31.0771 22.0644C31.0771 21.9001 31.1114 21.7376 31.1778 21.5872C31.2441 21.4368 31.3411 21.302 31.4624 21.1912C31.5838 21.0804 31.727 20.9962 31.8828 20.9438C32.0385 20.8914 32.2035 20.8721 32.3672 20.8871C32.6608 20.914 32.9338 21.0497 33.1326 21.2675C33.3314 21.4853 33.4416 21.7695 33.4416 22.0644C33.4416 22.3593 33.3314 22.6435 33.1326 22.8614C32.9338 23.0792 32.6608 23.2148 32.3672 23.2417ZM32.3672 21.2713C32.2085 21.2694 32.0529 21.3148 31.9202 21.4017C31.7874 21.4887 31.6836 21.6132 31.622 21.7594C31.5604 21.9056 31.5438 22.0669 31.5742 22.2226C31.6047 22.3783 31.6809 22.5214 31.7931 22.6336C31.9053 22.7458 32.0484 22.8219 32.2041 22.8524C32.3598 22.8829 32.5211 22.8663 32.6673 22.8047C32.8135 22.743 32.938 22.6392 33.0249 22.5065C33.1119 22.3738 33.1573 22.2181 33.1553 22.0595C33.1553 21.956 33.1349 21.8535 33.0953 21.7579C33.0557 21.6623 32.9977 21.5754 32.9245 21.5022C32.8513 21.429 32.7644 21.371 32.6688 21.3313C32.5732 21.2917 32.4707 21.2713 32.3672 21.2713Z" fill="white"/>
<path d="M30.5744 17.8625H21.1166C21.0412 17.8622 20.9668 17.8453 20.8987 17.8129C20.8306 17.7806 20.7704 17.7336 20.7226 17.6753C20.6775 17.6118 20.6478 17.5387 20.6359 17.4617C20.6239 17.3848 20.63 17.3061 20.6536 17.2319L21.6388 14.3257C21.6699 14.2268 21.7314 14.1402 21.8145 14.0783C21.8976 14.0164 21.9982 13.9823 22.1018 13.9808H29.6188C29.7241 13.9802 29.8269 14.0134 29.912 14.0754C29.9971 14.1375 30.0601 14.2252 30.0917 14.3257L31.0768 17.2319C31.1029 17.3058 31.1103 17.3849 31.0983 17.4623C31.0862 17.5397 31.0552 17.6129 31.0079 17.6753C30.9577 17.741 30.8915 17.7927 30.8156 17.8255C30.7397 17.8583 30.6566 17.871 30.5744 17.8625ZM21.7964 16.8773H29.8848L29.2444 14.9069H22.4368L21.7964 16.8773Z" fill="white"/>
<path d="M40.1307 38.5513C39.8694 38.5513 39.6188 38.4475 39.4341 38.2628C39.2493 38.078 39.1455 37.8274 39.1455 37.5662V16.6901C39.1455 16.4289 39.2493 16.1783 39.4341 15.9935C39.6188 15.8088 39.8694 15.705 40.1307 15.705C40.392 15.705 40.6426 15.8088 40.8273 15.9935C41.0121 16.1783 41.1159 16.4289 41.1159 16.6901V37.5957C41.1082 37.8518 41.001 38.0949 40.8171 38.2733C40.6331 38.4517 40.3869 38.5514 40.1307 38.5513Z" fill="white"/>
<path d="M11.5106 38.5513C11.2493 38.5513 10.9987 38.4475 10.8139 38.2628C10.6292 38.078 10.5254 37.8274 10.5254 37.5662V16.6901C10.5254 16.4289 10.6292 16.1783 10.8139 15.9935C10.9987 15.8088 11.2493 15.705 11.5106 15.705C11.7719 15.705 12.0224 15.8088 12.2072 15.9935C12.392 16.1783 12.4958 16.4289 12.4958 16.6901V37.5957C12.4881 37.8518 12.3809 38.0949 12.197 38.2733C12.013 38.4517 11.7668 38.5514 11.5106 38.5513Z" fill="white"/>
<path d="M15.8848 26.7685H11.5106C11.2493 26.7685 10.9987 26.6647 10.8139 26.4799C10.6292 26.2952 10.5254 26.0446 10.5254 25.7833C10.5254 25.522 10.6292 25.2714 10.8139 25.0866C10.9987 24.9019 11.2493 24.7981 11.5106 24.7981H15.8848C16.1461 24.7981 16.3966 24.9019 16.5814 25.0866C16.7662 25.2714 16.87 25.522 16.87 25.7833C16.87 26.0446 16.7662 26.2952 16.5814 26.4799C16.3966 26.6647 16.1461 26.7685 15.8848 26.7685Z" fill="white"/>
<path d="M40.1308 26.7685H35.8748C35.6135 26.7685 35.363 26.6647 35.1782 26.4799C34.9934 26.2952 34.8896 26.0446 34.8896 25.7833C34.8896 25.522 34.9934 25.2714 35.1782 25.0866C35.363 24.9019 35.6135 24.7981 35.8748 24.7981H40.1308C40.3921 24.7981 40.6427 24.9019 40.8274 25.0866C41.0122 25.2714 41.116 25.522 41.116 25.7833C41.116 26.0446 41.0122 26.2952 40.8274 26.4799C40.6427 26.6647 40.3921 26.7685 40.1308 26.7685Z" fill="white"/>
<path d="M14.3582 38.5513H8.67366C8.41237 38.5513 8.16179 38.4475 7.97704 38.2627C7.79228 38.078 7.68848 37.8274 7.68848 37.5661C7.68848 37.3048 7.79228 37.0542 7.97704 36.8695C8.16179 36.6847 8.41237 36.5809 8.67366 36.5809H14.3582C14.6195 36.5809 14.87 36.6847 15.0548 36.8695C15.2396 37.0542 15.3433 37.3048 15.3433 37.5661C15.3433 37.8274 15.2396 38.078 15.0548 38.2627C14.87 38.4475 14.6195 38.5513 14.3582 38.5513Z" fill="white"/>
<path d="M42.9675 38.5513H37.283C37.0217 38.5513 36.7712 38.4475 36.5864 38.2627C36.4016 38.078 36.2979 37.8274 36.2979 37.5661C36.2979 37.3048 36.4016 37.0542 36.5864 36.8695C36.7712 36.6847 37.0217 36.5809 37.283 36.5809H42.9675C43.2288 36.5809 43.4794 36.6847 43.6642 36.8695C43.8489 37.0542 43.9527 37.3048 43.9527 37.5661C43.9527 37.8274 43.8489 38.078 43.6642 38.2627C43.4794 38.4475 43.2288 38.5513 42.9675 38.5513Z" fill="white"/>
</svg>
