<svg width="51" height="50" viewBox="0 0 51 50" fill="none" xmlns="http://www.w3.org/2000/svg">
<rect x="0.820312" width="50" height="50" rx="10" fill="#086AFF"/>
<path d="M12.8525 37.851L11.0192 40.3928L12.7272 42.0896L15.032 40.4317" stroke="white"/>
<path d="M21.1191 23.3495L15.6362 28.8687C14.8577 29.6523 14.8619 30.9186 15.6455 31.6971L21.3091 37.3235C22.0927 38.102 23.359 38.0978 24.1375 37.3142L29.6205 31.795" stroke="white"/>
<path d="M14.4795 33.6791L12.9702 35.1984C12.1917 35.982 12.1959 37.2483 12.9795 38.0268L15.1744 40.2072C15.958 40.9857 17.2243 40.9815 18.0028 40.1979L19.5121 38.6786" stroke="white"/>
<path d="M31.3018 16.3955L28.5158 9.44507C28.1048 8.4198 26.9405 7.92181 25.9152 8.33277L22.5958 9.66331C21.5697 10.0746 21.0719 11.2405 21.4844 12.2661L23.2026 16.5374" stroke="white"/>
<path d="M24.833 11.3445L27.1062 16.7154" stroke="white"/>
<rect x="23.3822" y="18.7363" width="15.2989" height="5.21925" rx="0.5" transform="rotate(44.8113 23.3822 18.7363)" stroke="white"/>
<path d="M32.7165 24.9955L41.3713 16.2835L36.5342 11.4781L27.8794 20.1902" stroke="white"/>
</svg>
