<svg width="51" height="50" viewBox="0 0 51 50" fill="none" xmlns="http://www.w3.org/2000/svg">
<rect x="0.820312" width="50" height="50" rx="10" fill="#086AFF"/>
<path d="M15.9398 41.2495C15.6718 41.2531 15.4039 41.2364 15.1385 41.1996C14.9525 41.1758 14.7769 41.1005 14.6317 40.9821C14.4865 40.8636 14.3775 40.7069 14.3171 40.5297C14.2627 40.357 14.2564 40.1728 14.2987 39.9967C14.341 39.8206 14.4305 39.6593 14.5575 39.53L17.5024 36.5909L16.5007 34.2716L14.1769 33.2719L11.2922 36.251C11.1627 36.3778 11.001 36.4671 10.8246 36.5093C10.6482 36.5516 10.4636 36.5452 10.2906 36.4909C10.1116 36.4299 9.95367 36.3197 9.83491 36.1728C9.71615 36.026 9.64143 35.8486 9.61944 35.6612C9.49575 34.6691 9.6064 33.6618 9.94248 32.72C10.2786 31.7782 10.8308 30.9279 11.5549 30.2372C12.2791 29.5464 13.1552 29.0344 14.1132 28.742C15.0711 28.4496 16.0842 28.385 17.0716 28.5533L27.3184 18.2564C26.9887 17.0648 26.9589 15.8104 27.2316 14.6046C27.5044 13.3988 28.0712 12.2788 28.8818 11.3442C29.6924 10.4095 30.7217 9.68907 31.8783 9.24684C33.0349 8.80462 34.283 8.65428 35.5118 8.80917C35.6977 8.83278 35.8733 8.90799 36.0186 9.02624C36.1638 9.14448 36.2729 9.30105 36.3334 9.4781C36.3939 9.65514 36.4034 9.84558 36.3609 10.0278C36.3183 10.21 36.2255 10.3766 36.0928 10.5087L32.4568 14.1376L33.6988 17.1367L36.7038 18.3763L40.3397 14.7574C40.4692 14.6306 40.6309 14.5414 40.8073 14.4991C40.9837 14.4568 41.1683 14.4632 41.3414 14.5175C41.5203 14.5785 41.6782 14.6888 41.797 14.8356C41.9157 14.9824 41.9905 15.1598 42.0125 15.3472C42.1657 16.5742 42.0134 17.8199 41.569 18.974C41.1245 20.1282 40.4018 21.1551 39.4647 21.9638C38.5276 22.7725 37.4051 23.3381 36.1967 23.6104C34.9883 23.8827 33.7313 23.8533 32.5369 23.5248L22.3102 33.7817C22.4777 34.7907 22.4034 35.8248 22.0935 36.7996C21.7836 37.7744 21.2469 38.6621 20.5273 39.3901C19.9244 39.9881 19.2082 40.4605 18.4207 40.7797C17.6331 41.0989 16.7898 41.2586 15.9398 41.2495ZM13.9365 31.1026C14.0679 31.0992 14.1983 31.1266 14.3171 31.1825L17.6426 32.5521C17.8873 32.6535 18.0818 32.8477 18.1835 33.092L19.5657 36.421C19.6412 36.604 19.6605 36.8052 19.6213 36.9992C19.582 37.1932 19.486 37.3712 19.3454 37.5106L18.3437 38.5104C18.5985 38.3398 18.8366 38.1457 19.0549 37.9305C19.6004 37.3814 19.9927 36.6996 20.193 35.9526C20.3933 35.2057 20.3946 34.4194 20.1968 33.6718C20.1544 33.49 20.1638 33.3001 20.224 33.1234C20.2842 32.9467 20.3927 32.7904 20.5373 32.6721L31.5554 21.6754C31.6905 21.5411 31.8613 21.4481 32.0476 21.4073C32.2339 21.3666 32.428 21.3798 32.6071 21.4454C33.6004 21.8059 34.6757 21.879 35.7088 21.6561C36.742 21.4333 37.691 20.9236 38.4466 20.1858C39.0189 19.6218 39.46 18.9393 39.7387 18.1864L37.6153 20.2558C37.4744 20.3945 37.2955 20.4885 37.1012 20.5258C36.9069 20.5632 36.7059 20.5423 36.5235 20.4657L32.5169 18.8162C32.3948 18.7648 32.2841 18.6898 32.1912 18.5954C32.0984 18.501 32.0253 18.3892 31.976 18.2664L30.3233 14.2576C30.2479 14.0746 30.2285 13.8733 30.2678 13.6793C30.307 13.4853 30.403 13.3074 30.5437 13.1679L32.6772 11.0485C31.9206 11.3222 31.2357 11.763 30.6739 12.3381C29.9265 13.0849 29.4095 14.03 29.184 15.0613C28.9585 16.0926 29.0341 17.1667 29.4018 18.1564C29.4696 18.3364 29.484 18.5322 29.4431 18.7201C29.4022 18.9081 29.3079 19.0803 29.1714 19.2161L18.1534 30.2128C18.0361 30.3589 17.8799 30.4692 17.7028 30.531C17.5257 30.5929 17.3348 30.6039 17.1518 30.5627C16.4012 30.3634 15.6115 30.3637 14.8611 30.5637C14.1107 30.7636 13.4259 31.1562 12.8748 31.7024C12.6592 31.9202 12.4647 32.1579 12.2938 32.4122L13.2955 31.4125C13.4755 31.2289 13.7194 31.1215 13.9766 31.1125L13.9365 31.1026Z" fill="white"/>
</svg>
