<svg width="51" height="50" viewBox="0 0 51 50" fill="none" xmlns="http://www.w3.org/2000/svg">
<rect x="0.820312" width="50" height="50" rx="10" fill="#086AFF"/>
<path d="M23.4084 33.3904L19.7082 26.1785C19.4096 26.1942 18.9776 26.202 18.4119 26.202H15.3952V33.3904H12.9912V16.3033H18.4119C19.5432 16.3033 20.5016 16.374 21.2873 16.5155C22.0886 16.6412 22.827 16.8768 23.5027 17.2225C24.1783 17.5682 24.6811 18.0788 25.011 18.7544C25.3567 19.4144 25.5295 20.2392 25.5295 21.2291C25.5295 23.6645 24.3983 25.1886 22.1357 25.8014L26.0952 33.3904H23.4084ZM18.6005 18.3302H15.3952V24.1752H18.6005C19.3232 24.1752 19.9124 24.1516 20.3681 24.1045C20.8395 24.0416 21.2951 23.9159 21.735 23.7274C22.1907 23.5388 22.5207 23.2403 22.7249 22.8318C22.9449 22.4232 23.0549 21.9047 23.0549 21.2763C23.0549 20.7578 22.9763 20.3178 22.8192 19.9564C22.6621 19.595 22.4578 19.3122 22.2064 19.108C21.9707 18.888 21.6486 18.723 21.2401 18.613C20.8316 18.4873 20.4309 18.4088 20.0381 18.3774C19.6453 18.3459 19.1661 18.3302 18.6005 18.3302Z" fill="white"/>
<path d="M36.5056 33.3904V31.5756C35.6414 32.9897 34.3137 33.6967 32.5225 33.6967C29.82 33.6967 28.4688 32.0705 28.4688 28.8181V20.7106H30.6135V28.1818C30.6135 29.3445 30.7863 30.2479 31.132 30.8921C31.4934 31.5206 32.2083 31.8349 33.2767 31.8349C34.3137 31.8349 35.1072 31.4813 35.6571 30.7743C36.2227 30.0672 36.5056 29.0381 36.5056 27.6868V20.7106H38.6503V33.3904H36.5056Z" fill="white"/>
</svg>
