<svg width="22" height="22" viewBox="0 0 22 22" fill="none" xmlns="http://www.w3.org/2000/svg">
<g clip-path="url(#clip0_392_2114)">
<path fill-rule="evenodd" clip-rule="evenodd" d="M14.1445 19.3406L17.1332 21.7474C17.2506 21.8421 17.3924 21.9017 17.5421 21.9192C17.6919 21.9368 17.8436 21.9117 17.9797 21.8467C18.1158 21.7817 18.2308 21.6795 18.3113 21.552C18.3918 21.4245 18.4346 21.2768 18.4347 21.126V17.1262C19.5121 16.2556 20.3838 15.1576 20.9873 13.9107C21.5908 12.6639 21.9112 11.299 21.9255 9.91386C21.9255 4.50872 17.0533 0.0746155 11.0001 0.0746155C4.9469 0.0746155 0.074707 4.50872 0.074707 9.91386C0.074707 15.319 4.9469 19.7563 11.0001 19.7563C12.062 19.7579 13.1194 19.6181 14.1445 19.3406ZM14.824 17.835C14.7217 17.7528 14.6008 17.697 14.4719 17.6726C14.343 17.6481 14.21 17.6558 14.0848 17.6949C13.0857 18.0033 12.0457 18.1593 11.0001 18.1575C5.87742 18.1575 1.67354 14.4908 1.67354 9.91439C1.67354 5.34012 5.87742 1.67345 11.0001 1.67345C16.1228 1.67345 20.3266 5.33959 20.3266 9.91386C20.3087 11.1221 20.0122 12.3099 19.4604 13.3849C18.9086 14.4599 18.1162 15.3931 17.145 16.112C17.0487 16.1865 16.9707 16.282 16.9172 16.3913C16.8636 16.5006 16.8358 16.6208 16.8359 16.7425V19.4557L14.824 17.835Z" fill="white"/>
</g>
<defs>
<clipPath id="clip0_392_2114">
<rect width="22" height="22" fill="white"/>
</clipPath>
</defs>
</svg>
