<svg width="25" height="25" viewBox="0 0 25 25" fill="none" xmlns="http://www.w3.org/2000/svg">
<path fill-rule="evenodd" clip-rule="evenodd" d="M23.4252 5.41956C23.4252 4.79809 23.1784 4.20207 22.739 3.76255C22.2996 3.32303 21.7037 3.07601 21.0822 3.07581H3.89863C3.27717 3.07601 2.68123 3.32303 2.24186 3.76255C1.80249 4.20207 1.55566 4.79809 1.55566 5.41956V21.0196C1.55566 21.6412 1.80259 22.2373 2.24213 22.6768C2.68167 23.1164 3.27781 23.3633 3.89941 23.3633H21.0822C21.7038 23.3633 22.3 23.1164 22.7395 22.6768C23.179 22.2373 23.426 21.6412 23.426 21.0196L23.4252 5.41956ZM21.8643 5.41956V21.0196C21.8643 21.1222 21.844 21.2239 21.8047 21.3187C21.7654 21.4135 21.7078 21.4997 21.6352 21.5723C21.5625 21.6448 21.4763 21.7023 21.3814 21.7416C21.2866 21.7808 21.1849 21.8009 21.0822 21.8008H3.89863C3.69143 21.8008 3.49272 21.7185 3.34621 21.572C3.19969 21.4255 3.11738 21.2268 3.11738 21.0196V5.41956C3.11738 5.21236 3.19969 5.01364 3.34621 4.86713C3.49272 4.72062 3.69143 4.63831 3.89863 4.63831H21.0822C21.2894 4.63831 21.4881 4.72062 21.6347 4.86713C21.7812 5.01364 21.8643 5.21236 21.8643 5.41956Z" fill="#808080"/>
<path fill-rule="evenodd" clip-rule="evenodd" d="M2.34375 9.39453H22.2656C22.4728 9.39453 22.6715 9.31222 22.8181 9.16571C22.9646 9.0192 23.0469 8.82048 23.0469 8.61328C23.0469 8.40608 22.9646 8.20737 22.8181 8.06085C22.6715 7.91434 22.4728 7.83203 22.2656 7.83203H2.34375C2.13655 7.83203 1.93784 7.91434 1.79132 8.06085C1.64481 8.20737 1.5625 8.40608 1.5625 8.61328C1.5625 8.82048 1.64481 9.0192 1.79132 9.16571C1.93784 9.31222 2.13655 9.39453 2.34375 9.39453ZM20.3141 15.2633C20.3137 14.7454 20.1077 14.2489 19.7415 13.8827C19.3754 13.5165 18.8788 13.3106 18.3609 13.3102H6.64219C6.12438 13.3108 5.62795 13.5168 5.2618 13.8829C4.89566 14.249 4.68968 14.7455 4.68906 15.2633V16.0445C4.68875 16.3011 4.73906 16.5553 4.83709 16.7924C4.93513 17.0296 5.07897 17.2451 5.26038 17.4266C5.4418 17.6081 5.65723 17.752 5.89433 17.8501C6.13144 17.9482 6.38558 17.9986 6.64219 17.9984H18.3609C18.8789 17.9984 19.3757 17.7927 19.742 17.4264C20.1083 17.0601 20.3141 16.5633 20.3141 16.0453V15.2633ZM18.7516 15.2633V16.0445C18.7516 16.1481 18.7104 16.2475 18.6371 16.3207C18.5639 16.394 18.4645 16.4352 18.3609 16.4352H6.64219C6.53859 16.4352 6.43923 16.394 6.36597 16.3207C6.29272 16.2475 6.25156 16.1481 6.25156 16.0445V15.2633C6.25156 15.1597 6.29272 15.0603 6.36597 14.9871C6.43923 14.9138 6.53859 14.8727 6.64219 14.8727H18.3609C18.4645 14.8727 18.5639 14.9138 18.6371 14.9871C18.7104 15.0603 18.7516 15.1597 18.7516 15.2633ZM6.25 2.36328V5.48828C6.25 5.69548 6.33231 5.8942 6.47882 6.04071C6.62534 6.18722 6.82405 6.26953 7.03125 6.26953C7.23845 6.26953 7.43716 6.18722 7.58368 6.04071C7.73019 5.8942 7.8125 5.69548 7.8125 5.48828V2.36328C7.8125 2.15608 7.73019 1.95737 7.58368 1.81085C7.43716 1.66434 7.23845 1.58203 7.03125 1.58203C6.82405 1.58203 6.62534 1.66434 6.47882 1.81085C6.33231 1.95737 6.25 2.15608 6.25 2.36328ZM17.1875 2.36328V5.48828C17.1875 5.69548 17.2698 5.8942 17.4163 6.04071C17.5628 6.18722 17.7615 6.26953 17.9688 6.26953C18.176 6.26953 18.3747 6.18722 18.5212 6.04071C18.6677 5.8942 18.75 5.69548 18.75 5.48828V2.36328C18.75 2.15608 18.6677 1.95737 18.5212 1.81085C18.3747 1.66434 18.176 1.58203 17.9688 1.58203C17.7615 1.58203 17.5628 1.66434 17.4163 1.81085C17.2698 1.95737 17.1875 2.15608 17.1875 2.36328Z" fill="#808080"/>
</svg>
