<svg width="22" height="20" viewBox="0 0 22 20" fill="none" xmlns="http://www.w3.org/2000/svg">
<path d="M11 19.783C10.6867 19.783 10.3848 19.6695 10.1495 19.4634C9.26074 18.6863 8.4039 17.956 7.64791 17.3118L7.64404 17.3084C5.42763 15.4197 3.51368 13.7885 2.18199 12.1817C0.693385 10.3855 0 8.6823 0 6.82171C0 5.01402 0.619866 3.34628 1.74526 2.12554C2.8841 0.890363 4.44674 0.210083 6.14585 0.210083C7.41579 0.210083 8.57878 0.611582 9.60251 1.40332C10.1191 1.80293 10.5874 2.29204 11 2.86254C11.4127 2.29204 11.8808 1.80293 12.3976 1.40332C13.4213 0.611582 14.5843 0.210083 15.8543 0.210083C17.5532 0.210083 19.116 0.890363 20.2549 2.12554C21.3803 3.34628 22 5.01402 22 6.82171C22 8.68226 21.3067 10.3855 19.8181 12.1815C18.4864 13.7885 16.5726 15.4195 14.3566 17.3081C13.5992 17.9533 12.7411 18.6848 11.8503 19.4637C11.6149 19.6696 11.3127 19.7831 11 19.783ZM6.14585 1.4988C4.81099 1.4988 3.5847 2.03157 2.69259 2.99901C1.78724 3.9811 1.28854 5.33865 1.28854 6.82171C1.28854 8.38655 1.87013 9.78604 3.17414 11.3595C4.43449 12.8803 6.30918 14.4779 8.47978 16.3277L8.48378 16.3311C9.2426 16.9777 10.1028 17.7109 10.9981 18.4938C11.8988 17.7094 12.7604 16.9751 13.5207 16.3274C15.6911 14.4775 17.5656 12.8803 18.826 11.3595C20.1298 9.78604 20.7114 8.38655 20.7114 6.82171C20.7114 5.33861 20.2127 3.98106 19.3074 2.99901C18.4154 2.03157 17.189 1.4988 15.8543 1.4988C14.8764 1.4988 13.9786 1.80968 13.1858 2.42263C12.4794 2.96914 11.9873 3.65999 11.6987 4.14339C11.5504 4.39197 11.2892 4.54034 11 4.54034C10.7108 4.54034 10.4496 4.39197 10.3012 4.14339C10.0129 3.65999 9.52074 2.96914 8.81408 2.42263C8.02139 1.80968 7.12356 1.4988 6.14585 1.4988Z" fill="white"/>
</svg>
