<svg width="30" height="30" viewBox="0 0 30 30" fill="none" xmlns="http://www.w3.org/2000/svg">
<path class="target" d="M14.9576 28.1217C22.1856 28.1217 28.0451 22.2469 28.0451 15C28.0451 7.75312 22.1856 1.87836 14.9576 1.87836C7.72959 1.87836 1.87012 7.75312 1.87012 15C1.87012 22.2469 7.72959 28.1217 14.9576 28.1217Z" fill="#002358"/>
<path d="M21.4886 9.57217C21.605 8.81722 20.8892 8.22134 20.2196 8.51606L6.88498 14.3859C6.40487 14.5973 6.43999 15.3265 6.93794 15.4854L9.68784 16.3635C10.2127 16.531 10.781 16.4444 11.2394 16.1269L17.4393 11.8324C17.6263 11.7028 17.83 11.9694 17.6703 12.1345L13.2074 16.7476C12.7745 17.1952 12.8604 17.9535 13.3812 18.2809L18.3778 21.4224C18.9383 21.7747 19.6592 21.4208 19.764 20.7418L21.4886 9.57217Z" fill="white"/>
</svg>
