<svg width="35" height="35" viewBox="0 0 35 35" fill="none" xmlns="http://www.w3.org/2000/svg">
<path d="M25.8278 22.8619C25.5081 22.5411 25.1282 22.2865 24.7099 22.1128C24.2916 21.9391 23.8431 21.8497 23.3902 21.8497C22.9373 21.8497 22.4888 21.9391 22.0705 22.1128C21.6522 22.2865 21.2723 22.5411 20.9526 22.8619L19.2893 24.5252C17.4165 23.3366 15.6814 21.9439 14.1158 20.3727C12.5479 18.8041 11.1555 17.0694 9.96331 15.1992L11.6266 13.5359C11.9474 13.2162 12.202 12.8363 12.3757 12.418C12.5494 11.9997 12.6388 11.5512 12.6388 11.0983C12.6388 10.6454 12.5494 10.1969 12.3757 9.77861C12.202 9.36031 11.9474 8.98041 11.6266 8.6607L8.38031 5.42586C8.06511 5.10397 7.68842 4.84874 7.27262 4.67532C6.85683 4.50191 6.41041 4.41386 5.95991 4.4164C5.50621 4.41529 5.05676 4.5039 4.63744 4.67715C4.21811 4.85039 3.83718 5.10484 3.51657 5.42586L1.9565 6.97445C1.21291 7.77395 0.657939 8.72993 0.332383 9.7721C0.00682612 10.8143 -0.0810407 11.9162 0.0752413 12.9968C0.442316 17.2984 3.2642 22.4719 7.61174 26.8309C11.9593 31.1899 17.1901 34.0003 21.4918 34.4133C21.8127 34.4304 22.1344 34.4304 22.4553 34.4133C23.3813 34.4522 24.3057 34.3058 25.1744 33.9827C26.0431 33.6597 26.8385 33.1665 27.5141 32.532L29.0627 30.972C29.3837 30.6513 29.6381 30.2704 29.8114 29.8511C29.9846 29.4318 30.0732 28.9823 30.0721 28.5286C30.0747 28.0781 29.9866 27.6317 29.8132 27.2159C29.6398 26.8001 29.3846 26.4234 29.0627 26.1082L25.8278 22.8619ZM27.4452 29.3545L25.8852 30.9031C25.3084 31.3839 24.635 31.7351 23.9106 31.933C23.1863 32.1309 22.4279 32.1709 21.6868 32.0502C17.9587 31.729 13.2096 29.0907 9.28652 25.1676C5.36341 21.2445 2.72506 16.5299 2.36946 12.8018C2.24575 12.0606 2.28425 11.3015 2.48228 10.5767C2.68032 9.85186 3.03319 9.17861 3.51657 8.60335L5.13399 7.04328C5.24117 6.93696 5.36829 6.85285 5.50805 6.79577C5.64781 6.73868 5.79747 6.70974 5.94844 6.71062C6.0994 6.70974 6.24906 6.73868 6.38882 6.79577C6.52858 6.85285 6.6557 6.93696 6.76288 7.04328L10.0092 10.324C10.2228 10.5389 10.3428 10.8297 10.3428 11.1327C10.3428 11.4358 10.2228 11.7265 10.0092 11.9414L7.71498 14.2356C7.53546 14.4143 7.4201 14.6473 7.3869 14.8984C7.3537 15.1495 7.40452 15.4045 7.53145 15.6236C8.90498 17.962 10.5744 20.1133 12.4984 22.0245C14.4096 23.9485 16.561 25.618 18.8993 26.9915C19.1185 27.1184 19.3735 27.1692 19.6245 27.136C19.8756 27.1028 20.1086 26.9875 20.2873 26.808L22.5815 24.5137C22.7964 24.3001 23.0872 24.1802 23.3902 24.1802C23.6933 24.1802 23.984 24.3001 24.1989 24.5137L27.4452 27.7601C27.5516 27.8672 27.6357 27.9944 27.6928 28.1341C27.7498 28.2739 27.7788 28.4235 27.7779 28.5745C27.7707 28.8675 27.6517 29.1466 27.4452 29.3545ZM29.4412 5.03584C27.847 3.43559 25.9519 2.16674 23.8649 1.30244C21.778 0.438144 19.5407 -0.00449854 17.2819 3.44666e-05C16.9776 3.44666e-05 16.6859 0.12089 16.4707 0.336015C16.2556 0.551139 16.1348 0.842911 16.1348 1.14714C16.1348 1.45137 16.2556 1.74315 16.4707 1.95827C16.6859 2.1734 16.9776 2.29425 17.2819 2.29425C19.2509 2.29418 21.2004 2.68404 23.0179 3.44134C24.8354 4.19864 26.485 5.30837 27.8714 6.70651C29.2578 8.10465 30.3536 9.7635 31.0956 11.5874C31.8375 13.4112 32.2109 15.3639 32.1943 17.3328C32.1943 17.6371 32.3151 17.9288 32.5303 18.144C32.7454 18.3591 33.0372 18.4799 33.3414 18.4799C33.6456 18.4799 33.9374 18.3591 34.1525 18.144C34.3676 17.9288 34.4885 17.6371 34.4885 17.3328C34.5105 15.05 34.0752 12.7859 33.2083 10.6739C32.3415 8.562 31.0606 6.64496 29.4412 5.03584Z" fill="white"/>
<path d="M22.9144 11.5973C23.5654 12.2444 24.0804 13.0151 24.4291 13.8642C24.7778 14.7133 24.9531 15.6235 24.9448 16.5413C24.9448 16.8456 25.0657 17.1373 25.2808 17.3525C25.4959 17.5676 25.7877 17.6884 26.0919 17.6884C26.3961 17.6884 26.6879 17.5676 26.903 17.3525C27.1182 17.1373 27.239 16.8456 27.239 16.5413C27.2542 15.3266 27.028 14.1209 26.5737 12.9943C26.1193 11.8676 25.4457 10.8424 24.5921 9.97803C23.7384 9.11369 22.7216 8.42745 21.6007 7.95911C20.4797 7.49077 19.277 7.24966 18.0621 7.24976C17.7579 7.24976 17.4661 7.37061 17.251 7.58574C17.0359 7.80086 16.915 8.09263 16.915 8.39686C16.915 8.7011 17.0359 8.99287 17.251 9.20799C17.4661 9.42312 17.7579 9.54397 18.0621 9.54397C18.9662 9.55078 19.86 9.73562 20.6925 10.0879C21.5251 10.4403 22.2801 10.9531 22.9144 11.5973Z" fill="white"/>
</svg>
