<svg width="203" height="74" viewBox="0 0 203 74" fill="none" xmlns="http://www.w3.org/2000/svg">
<path d="M70.1279 40.9331H76.4464C77.3297 47.2065 78.213 53.4584 79.0932 59.7134C79.1294 59.7134 79.1686 59.7165 79.2047 59.7195C79.5122 58.0715 79.7775 56.4174 80.1332 54.7817C81.1099 50.2911 82.1168 45.8097 83.1387 41.3313C83.1779 41.1598 83.4523 40.927 83.6211 40.9239C85.0771 40.8902 86.5361 40.9117 87.9952 40.8994C88.3268 40.8994 88.4594 41.0066 88.5348 41.3558C89.7858 47.2739 91.0519 53.1858 92.315 59.1008C92.3723 59.3703 92.4206 59.6429 92.5019 60.084C93.4123 53.6054 94.2986 47.2922 95.1909 40.9484H101.142C100.925 42.1829 100.717 43.3745 100.509 44.5691C99.761 48.8453 99.0134 53.1245 98.2718 57.4007C97.7503 60.3934 97.2318 63.3861 96.7223 66.3788C96.6439 66.8475 96.4631 67.0558 95.9415 67.0466C93.8283 67.0129 91.7151 67.0313 89.605 67.0374C89.2673 67.0374 88.996 67.0313 88.9026 66.5902C88.0555 62.4886 87.1843 58.3901 86.3402 54.2855C86.09 53.0724 85.8971 51.8502 85.5866 50.6158C85.4208 51.4735 85.264 52.3312 85.0922 53.1888C84.1968 57.6549 83.2955 62.118 82.4092 66.5841C82.3399 66.9271 82.1831 67.0405 81.8515 67.0405C79.675 67.0313 77.4985 67.0313 75.322 67.0405C74.9301 67.0405 74.8487 66.8506 74.7854 66.5014C73.9986 62.1455 73.1937 57.7928 72.3949 53.437C71.6623 49.4426 70.9298 45.4482 70.1973 41.4538C70.1701 41.3068 70.1581 41.1598 70.1279 40.9392V40.9331Z" fill="white"/>
<path d="M43.0361 40.8994C45.1584 40.8994 47.2264 40.8902 49.2974 40.9178C49.4662 40.9178 49.7194 41.1628 49.7827 41.3466C51.5191 46.3273 53.2374 51.3142 54.9587 56.301C54.9918 56.396 55.0371 56.4848 55.1245 56.6778C55.5224 55.4035 55.8631 54.2181 56.264 53.051C57.6085 49.1301 58.968 45.2154 60.3397 41.3068C60.4 41.1383 60.6381 40.9178 60.7949 40.9178C62.8237 40.8963 64.8494 40.9117 66.8782 40.9178C66.9174 40.9178 66.9536 40.9484 67.0772 41.0036C67.0772 41.1935 67.0772 41.4201 67.0772 41.6499C67.0772 49.8439 67.0712 58.0348 67.0923 66.2287C67.0923 66.8934 66.8993 67.068 66.2663 67.0466C64.8525 66.9976 63.4356 67.016 62.0188 67.0374C61.5726 67.0435 61.3767 66.9455 61.3827 66.437C61.437 62.6418 61.4279 58.8465 61.5184 55.0512C61.5545 53.538 61.7957 52.0279 61.8711 50.4871C61.7475 50.8026 61.6148 51.1181 61.5033 51.4398C60.0051 55.6455 58.5008 59.8482 57.0206 64.06C56.8307 64.5991 56.5745 64.8411 55.9746 64.789C55.2421 64.7247 54.4975 64.7523 53.7589 64.7829C53.3519 64.7982 53.1741 64.642 53.0384 64.2561C51.4709 59.8022 49.8852 55.3576 48.3026 50.9129C48.2604 50.7934 48.2031 50.6801 48.1036 50.5698C48.8301 56.0161 48.4925 61.4839 48.5769 66.9884H43.0361V40.9025V40.8994Z" fill="white"/>
<path d="M19.562 40.93C19.7248 40.9178 19.8484 40.9025 19.972 40.9025C23.1825 40.9086 26.396 40.8596 29.6035 40.9484C30.8756 40.9852 32.1749 41.2027 33.4048 41.5488C36.953 42.5413 38.617 45.5034 37.7458 49.1332C37.375 50.6862 36.5761 51.9697 35.2407 52.8672C35.1563 52.9223 35.0839 52.9959 35.1442 52.9438C36.0456 53.6544 37.0977 54.2395 37.8242 55.1064C40.2931 58.047 39.4038 63.0798 36.1632 65.224C34.1766 66.5381 31.9518 66.9608 29.6577 67.0068C26.405 67.0742 23.1523 67.0282 19.8996 67.0282C19.8002 67.0282 19.6977 67.0068 19.562 66.9915V40.9331V40.93ZM25.6906 61.9985C27.222 61.9985 28.675 62.0567 30.122 61.9709C30.7249 61.9342 31.3549 61.6677 31.8945 61.3644C33.0521 60.712 33.236 59.5847 33.1154 58.3656C33.0009 57.2169 32.3106 56.5369 31.2705 56.2643C30.544 56.0743 29.7783 55.9794 29.0277 55.9426C27.9214 55.8906 26.815 55.9304 25.6936 55.9304V62.0016L25.6906 61.9985ZM25.7027 51.2529C27.0291 51.1886 28.3072 51.1488 29.5794 51.0446C29.9411 51.014 30.2998 50.821 30.6405 50.6587C31.7107 50.1502 32.0031 48.9647 31.9187 48.0366C31.8192 46.9921 31.3127 46.2753 30.2094 46.0976C28.7323 45.8617 27.225 45.8342 25.7027 45.7147V51.2529Z" fill="white"/>
<path d="M33.2417 33.9675C40.2144 32.4022 47.3528 31.3852 53.8251 27.7309C53.4724 28.319 53.1498 28.8489 52.8333 29.388C52.5258 29.9118 52.577 30.065 53.1679 30.1416C55.1726 30.3989 57.1833 30.6409 59.191 30.8614C62.0427 31.1739 64.8915 31.5077 67.7463 31.7528C70.9628 32.0285 74.1884 32.2306 77.4109 32.4451C82.5719 32.7881 87.7328 33.168 92.8967 33.4345C98.6334 33.7285 104.373 33.9981 110.113 34.1237C117.019 34.2707 123.925 34.283 130.832 34.2952C135.2 34.3013 139.574 34.0655 143.939 34.188C147.264 34.283 150.58 34.7486 153.893 35.0947C156.41 35.3581 158.927 35.6522 161.433 36.0075C164.501 36.4425 167.579 36.8622 170.621 37.4472C175.152 38.3202 179.74 39.0523 184.033 40.832C186.363 41.7969 188.57 43.0957 190.773 44.3485C191.792 44.9275 192.724 45.6994 193.607 46.4836C194.792 47.5373 195.416 48.8238 195.138 50.53C194.972 51.5654 195.108 52.6497 195.108 53.7586C194.629 53.2838 194.514 52.7018 194.535 52.083C194.55 51.5899 194.547 51.0906 194.629 50.6096C194.942 48.7472 194.023 47.4423 192.678 46.4468C189.908 44.3975 186.948 42.6944 183.704 41.5029C179.303 39.8855 174.751 38.8869 170.172 38.0384C165.731 37.2175 161.255 36.6263 156.751 36.274C153.89 36.0504 151.044 35.6032 148.184 35.4378C145.109 35.2601 142.025 35.2264 138.944 35.2509C134.615 35.2846 130.286 35.4347 125.957 35.5327C122.346 35.6154 118.734 35.7778 115.126 35.7564C111.24 35.7349 107.358 35.5542 103.475 35.4163C97.3522 35.1989 91.2296 35.0059 85.1131 34.7149C80.938 34.5158 76.7718 34.1635 72.5997 33.8817C68.5331 33.6091 64.4664 33.3548 60.4028 33.0638C56.9301 32.8157 53.4603 32.4788 49.9845 32.2797C48.7757 32.2092 47.5458 32.3961 46.3309 32.5278C42.1135 32.9872 37.9022 33.4743 33.6879 33.9491C33.5432 33.9644 33.3954 33.9644 33.2477 33.9736L33.2417 33.9675Z" fill="white"/>
<path d="M133.798 33.5999C132.189 32.8157 130.585 32.0193 128.972 31.2443C124.107 28.9163 119.295 26.4627 114.352 24.3246C111.099 22.9186 107.632 22.0762 104.084 21.6933C101.965 21.4667 99.8546 21.0654 97.7324 20.9888C91.7575 20.7652 85.7766 20.5722 79.8078 21.1389C73.6853 21.7209 67.6049 22.5817 61.6843 24.3338C56.3003 25.9266 50.9646 27.6757 45.7012 29.6545C41.9059 31.082 38.0985 32.4849 34.0469 33.0179C31.3278 33.3732 28.6147 33.7592 25.8986 34.1267C25.8383 34.1359 25.775 34.1084 25.6333 34.0839C26.5437 33.0179 28.1203 32.8096 28.6931 31.4036C30.9269 32.2061 32.9406 31.0176 35.0387 30.6654C40.9985 29.6606 46.6236 27.4827 52.288 25.4457C57.7353 23.4884 63.1916 21.5524 68.871 20.3884C70.3964 20.076 71.967 19.9657 73.5225 19.8279C76.5099 19.5644 79.5064 19.4113 82.4847 19.0897C85.7586 18.7405 89.0203 18.768 92.282 19.1142C95.8483 19.4909 99.4175 19.8708 102.972 20.3578C106.182 20.7989 109.471 21.0133 112.495 22.2937C115.138 23.4118 117.701 24.7381 120.242 26.0859C124.673 28.4354 129.063 30.8706 133.47 33.2721C133.6 33.3426 133.726 33.4161 133.856 33.4865L133.801 33.6029L133.798 33.5999Z" fill="white"/>
<path d="M158.081 40.9331H164.221C164.221 41.2333 164.221 41.5059 164.221 41.7755C164.221 46.3641 164.215 50.9527 164.224 55.5444C164.227 56.9596 164.309 58.3687 164.833 59.7164C165.433 61.2511 166.551 61.9832 168.149 62.0353C169.825 62.0904 171.179 61.5789 171.932 59.9247C172.563 58.5402 172.647 57.0637 172.656 55.5842C172.677 50.9742 172.665 46.3641 172.665 41.751C172.665 41.4998 172.665 41.2455 172.665 40.9484H178.613C178.628 41.0648 178.649 41.1659 178.649 41.2701C178.646 45.9873 178.676 50.7046 178.622 55.4219C178.595 57.7193 178.317 59.9921 177.413 62.1455C176.527 64.2622 175.098 65.8795 172.997 66.6913C170.265 67.7419 167.438 67.8185 164.616 66.9608C160.664 65.757 159.006 62.7 158.385 58.8679C158.174 57.563 158.081 56.2275 158.069 54.9042C158.029 50.4228 158.053 45.9414 158.056 41.4569C158.056 41.3099 158.072 41.1598 158.084 40.9362L158.081 40.9331ZM173.09 41.3681C173.09 41.6713 173.09 41.9041 173.09 42.1369C173.087 46.9185 173.108 51.7001 173.054 56.4817C173.042 57.4497 172.846 58.4422 172.578 59.3795C171.96 61.5329 170.531 62.5039 168.258 62.461C166.123 62.4182 164.758 61.3981 164.251 59.2447C163.971 58.0501 163.835 56.7942 163.82 55.5628C163.772 51.0814 163.799 46.6 163.799 42.1185C163.799 41.8735 163.799 41.6254 163.799 41.3895H158.542C158.521 41.509 158.503 41.5733 158.503 41.6346C158.506 46.5019 158.472 51.3693 158.533 56.2367C158.563 58.5892 159.015 60.8774 160.191 62.9603C161.366 65.0433 163.181 66.2961 165.442 66.7587C167.191 67.1171 168.978 67.1477 170.787 66.8414C173.358 66.4064 175.318 65.1658 176.578 62.8654C177.868 60.5129 178.176 57.9276 178.179 55.284C178.185 50.8884 178.182 46.4928 178.182 42.0971C178.182 41.8674 178.182 41.6376 178.182 41.3711H173.093L173.09 41.3681Z" fill="white"/>
<path d="M130.181 40.9362C129.578 42.2564 129.005 43.5123 128.424 44.7682C126.491 48.9586 124.553 53.1429 122.63 57.3394C122.512 57.5967 122.467 57.9153 122.467 58.2032C122.455 60.905 122.446 63.6067 122.473 66.3084C122.479 66.8689 122.331 67.0558 121.764 67.0435C120.161 67.0068 118.554 67.0098 116.947 67.0435C116.402 67.0558 116.272 66.8567 116.278 66.339C116.302 64.1305 116.212 61.9189 116.317 59.7134C116.389 58.2369 115.986 56.9596 115.377 55.6669C113.529 51.7491 111.732 47.8069 109.914 43.8737C109.468 42.9119 109.025 41.9501 108.54 40.9055C110.378 40.9055 112.127 40.9055 113.875 40.9055C115.181 40.9055 115.175 40.9055 115.63 42.14C116.811 45.3226 117.999 48.5053 119.187 51.6879C119.238 51.8257 119.298 51.9636 119.407 52.227C119.748 51.3448 120.052 50.5637 120.351 49.7795C121.4 47.0257 122.458 44.272 123.486 41.512C123.652 41.0679 123.853 40.8872 124.345 40.8963C126.078 40.93 127.809 40.9086 129.542 40.9117C129.726 40.9117 129.91 40.93 130.178 40.9454L130.181 40.9362ZM116.7 66.5963C118.328 66.5963 119.865 66.5749 121.403 66.6086C121.915 66.6178 122.039 66.4401 122.033 65.9439C122.012 63.3494 122.015 60.7549 122.036 58.1604C122.039 57.7683 122.132 57.3486 122.295 56.9933C124.318 52.5885 126.362 48.1959 128.396 43.7972C128.761 43.0099 129.105 42.2166 129.5 41.3283C127.685 41.3283 125.979 41.316 124.276 41.3497C124.128 41.3497 123.923 41.6131 123.85 41.7969C122.503 45.3012 121.174 48.8146 119.829 52.3189C119.742 52.5456 119.54 52.7294 119.389 52.9315C119.241 52.7263 119.039 52.5456 118.952 52.3158C117.637 48.8208 116.335 45.3226 115.045 41.8184C114.903 41.4293 114.698 41.3037 114.3 41.316C113.351 41.3436 112.398 41.3252 111.449 41.3252C110.743 41.3252 110.038 41.3252 109.251 41.3252C109.366 41.607 109.432 41.7847 109.507 41.9531C111.777 46.8726 114.056 51.789 116.302 56.7207C116.531 57.2261 116.673 57.8173 116.682 58.3717C116.721 60.8161 116.7 63.2605 116.7 65.7049C116.7 65.9776 116.7 66.2502 116.7 66.5933V66.5963Z" fill="white"/>
<path d="M153.857 54.4233C153.872 56.3837 153.474 58.7669 152.443 61.0305C151.234 63.6802 149.329 65.6375 146.655 66.679C144.015 67.7082 141.274 67.8308 138.537 66.9608C133.907 65.4905 131.622 62.0138 130.76 57.4129C130.136 54.0955 130.295 50.7934 131.498 47.6077C133.442 42.4739 137.889 40.1183 143.041 40.4644C147.493 40.7616 150.716 42.9333 152.603 47.0809C153.426 48.8912 153.863 51.2437 153.857 54.4264V54.4233ZM153.504 53.8505C153.39 52.7447 153.326 51.6327 153.152 50.5392C152.748 48.006 151.78 45.73 149.962 43.8921C147.961 41.8674 145.471 40.976 142.7 40.8657C137.618 40.6666 133.391 43.1907 131.718 48.2786C130.744 51.2407 130.651 54.2579 131.166 57.2965C131.962 61.9679 134.926 66.1828 140.322 66.9057C141.928 67.1201 143.511 67.0956 145.033 66.7342C147.84 66.0695 150.038 64.4398 151.518 61.8699C152.944 59.3887 153.417 56.6839 153.504 53.8505Z" fill="white"/>
<path d="M192.561 48.5635C193.11 48.9586 193.426 49.464 193.357 50.2084C193.254 51.3326 193.23 52.4659 193.113 53.5871C193.077 53.924 192.85 54.2395 192.642 54.7204C192.667 52.5211 193.36 50.5361 192.561 48.5635Z" fill="white"/>
<path d="M190.472 54.1262C190.448 52.2607 191.214 50.3462 190.062 48.4654C190.873 49.2925 191.027 49.6815 190.978 50.7138C190.933 51.6756 190.894 52.6344 190.831 53.5932C190.819 53.7862 190.704 53.97 190.638 54.1568L190.472 54.1231V54.1262Z" fill="white"/>
<path d="M189.673 53.5656C189.778 51.9605 190.182 50.4596 189.534 48.9096C190.414 49.7795 190.517 52.7814 189.673 53.5656Z" fill="white"/>
<path d="M192.018 48.8024C192.163 49.1883 192.456 49.5866 192.422 49.9572C192.287 51.4183 192.48 52.9223 191.961 54.3345C191.889 52.5149 192.365 50.7015 192.018 48.8024Z" fill="white"/>
<path d="M189.179 52.956C189.091 52.7049 188.925 52.4537 188.931 52.2056C188.955 51.1917 189.031 50.1777 189.094 49.0597C189.715 50.3677 189.266 51.6481 189.411 52.8856C189.332 52.9101 189.254 52.9346 189.175 52.9591L189.179 52.956Z" fill="white"/>
<path d="M191.192 48.9984C191.859 49.7673 191.868 53.4308 191.298 54.1507C191.241 52.4782 191.765 50.772 191.192 48.9984Z" fill="white"/>
<path d="M147.994 53.5227C147.994 55.9304 147.707 57.9276 146.655 59.7379C145.606 61.5421 144.072 62.5254 141.965 62.4549C139.851 62.3814 138.404 61.248 137.47 59.404C136.403 57.2996 136.135 55.0206 136.382 52.711C136.526 51.3663 136.819 49.9909 137.328 48.7472C138.227 46.5448 139.951 45.3839 142.354 45.4605C144.774 45.537 146.288 46.9277 147.18 49.0934C147.807 50.6127 148.039 52.2209 147.994 53.5227ZM136.734 53.973C136.765 55.9671 137.039 58.0378 138.233 59.8604C140.102 62.7153 143.948 62.7949 145.947 60.032C147.041 58.5218 147.406 56.7727 147.52 54.9532C147.656 52.8121 147.511 50.7046 146.55 48.7411C145.691 46.9921 144.316 45.9659 142.357 45.8924C140.463 45.8219 139.001 46.6275 138.022 48.2755C137.006 49.9848 136.765 51.8901 136.737 53.973H136.734Z" fill="white"/>
</svg>
