<svg width="48" height="37" viewBox="0 0 48 37" fill="none" xmlns="http://www.w3.org/2000/svg">
<path d="M11 18.9409C10.4067 18.9409 9.82663 19.1169 9.33328 19.4465C8.83993 19.7761 8.45542 20.2447 8.22836 20.7929C8.0013 21.3411 7.94189 21.9442 8.05765 22.5262C8.1734 23.1081 8.45913 23.6427 8.87869 24.0622C9.29825 24.4818 9.83279 24.7675 10.4147 24.8833C10.9967 24.999 11.5999 24.9396 12.148 24.7126C12.6962 24.4855 13.1648 24.101 13.4944 23.6076C13.8241 23.1143 14 22.5343 14 21.9409C14 21.1453 13.6839 20.3822 13.1213 19.8196C12.5587 19.257 11.7956 18.9409 11 18.9409Z" stroke="#000C1D" stroke-width="2" stroke-linecap="round" stroke-linejoin="round"/>
<path d="M37 18.9409C36.4067 18.9409 35.8266 19.1169 35.3333 19.4465C34.8399 19.7761 34.4554 20.2447 34.2284 20.7929C34.0013 21.3411 33.9419 21.9442 34.0576 22.5262C34.1734 23.1081 34.4591 23.6427 34.8787 24.0622C35.2982 24.4818 35.8328 24.7675 36.4147 24.8833C36.9967 24.999 37.5999 24.9396 38.148 24.7126C38.6962 24.4855 39.1648 24.101 39.4944 23.6076C39.8241 23.1143 40 22.5343 40 21.9409C40 21.1453 39.6839 20.3822 39.1213 19.8196C38.5587 19.257 37.7956 18.9409 37 18.9409Z" stroke="#000C1D" stroke-width="2" stroke-linecap="round" stroke-linejoin="round"/>
<path d="M36.29 4.00092C35.13 2.12092 33.6 1.94092 31.48 1.94092H16.66C14.55 1.94092 13.01 2.12092 11.86 4.00092L9.05002 10.9409C8.88529 11.3093 8.84696 11.7219 8.94101 12.1143C9.03506 12.5068 9.25622 12.8572 9.57004 13.1109L10.87 14.1109C11.575 14.6627 12.4448 14.962 13.34 14.9609H34.81C35.7045 14.9574 36.5728 14.6586 37.28 14.1109L38.57 13.1109C38.8842 12.8574 39.1062 12.5077 39.202 12.1155C39.2978 11.7234 39.262 11.3107 39.1 10.9409L36.29 4.00092Z" stroke="#000C1D" stroke-width="2" stroke-linecap="round" stroke-linejoin="round"/>
<path d="M42 13.9409H46C46.68 13.9409 47 13.7109 47 12.9409C46.9435 12.3837 46.8054 11.8379 46.59 11.3209C46.4934 10.9328 46.2715 10.5872 45.9588 10.3378C45.6461 10.0883 45.2599 9.94885 44.86 9.94092H44" stroke="#000C1D" stroke-width="2" stroke-linecap="round" stroke-linejoin="round"/>
<path d="M6 13.9409H2C1.32 13.9409 1 13.7109 1 12.9409C1.05648 12.3837 1.19463 11.8379 1.41 11.3209C1.50663 10.9328 1.72845 10.5872 2.04117 10.3378C2.35388 10.0883 2.74008 9.94885 3.14001 9.94092H4" stroke="#000C1D" stroke-width="2" stroke-linecap="round" stroke-linejoin="round"/>
<path d="M18 24.9409H30" stroke="#000C1D" stroke-width="2" stroke-linecap="round" stroke-linejoin="round"/>
<path d="M6 13.9409L3.57001 16.8409C2.5488 18.3458 2.00194 20.1222 2 21.9409V27.9409C2 28.7366 2.31608 29.4996 2.87869 30.0622C3.4413 30.6248 4.20435 30.9409 5 30.9409H43C43.7956 30.9409 44.5587 30.6248 45.1213 30.0622C45.6839 29.4996 46 28.7366 46 27.9409V21.9409C46.0061 20.1086 45.4589 18.3171 44.43 16.8009L42 13.9409" stroke="#000C1D" stroke-width="2" stroke-linecap="round" stroke-linejoin="round"/>
<path d="M13 30.9409V34.4809C13 34.8681 12.8462 35.2395 12.5724 35.5133C12.2986 35.7871 11.9272 35.9409 11.54 35.9409H6.45999C6.07278 35.9409 5.70142 35.7871 5.42761 35.5133C5.15381 35.2395 5 34.8681 5 34.4809V30.9409" stroke="#000C1D" stroke-width="2" stroke-linecap="round" stroke-linejoin="round"/>
<path d="M43 30.9409V34.4809C43 34.8681 42.8462 35.2395 42.5724 35.5133C42.2986 35.7871 41.9272 35.9409 41.54 35.9409H36.46C36.0728 35.9409 35.7014 35.7871 35.4276 35.5133C35.1538 35.2395 35 34.8681 35 34.4809V30.9409" stroke="#000C1D" stroke-width="2" stroke-linecap="round" stroke-linejoin="round"/>
</svg>
