<svg width="41" height="40" viewBox="0 0 41 40" fill="none" xmlns="http://www.w3.org/2000/svg">
<path d="M35.5108 39.0136C35.3935 39.0149 35.2772 38.9923 35.1688 38.9474C35.0605 38.9025 34.9624 38.8361 34.8805 38.7522C34.7135 38.5851 34.6196 38.3586 34.6196 38.1224C34.6196 37.8862 34.7135 37.6597 34.8805 37.4926L38.3293 34.0463C38.4984 33.8889 38.722 33.8032 38.9531 33.8073C39.1841 33.8113 39.4046 33.9049 39.568 34.0682C39.7315 34.2315 39.825 34.4517 39.8291 34.6826C39.8332 34.9135 39.7474 35.137 39.5899 35.306L36.1411 38.7522C36.0587 38.8355 35.9606 38.9016 35.8523 38.9465C35.7441 38.9914 35.628 39.0142 35.5108 39.0136Z" fill="#000C1D"/>
<path d="M32.9182 38.3838C32.8007 38.3864 32.684 38.3646 32.5754 38.3195C32.4669 38.2745 32.3689 38.2073 32.2879 38.1223L23.761 29.6138C23.5961 29.4432 23.5039 29.2152 23.5039 28.978C23.5039 28.7407 23.5961 28.5128 23.761 28.3422C23.9283 28.1753 24.155 28.0815 24.3913 28.0815C24.6277 28.0815 24.8544 28.1753 25.0216 28.3422L33.5485 36.8627C33.7155 37.0298 33.8093 37.2564 33.8093 37.4925C33.8093 37.7287 33.7155 37.9552 33.5485 38.1223C33.4662 38.2056 33.368 38.2717 33.2597 38.3166C33.1515 38.3615 33.0354 38.3844 32.9182 38.3838Z" fill="#000C1D"/>
<path d="M38.4961 32.7987C38.3789 32.7992 38.2628 32.7763 38.1546 32.7314C38.0463 32.6865 37.9481 32.6205 37.8658 32.5372L29.3508 24.0286C29.2667 23.9467 29.1998 23.8488 29.1541 23.7406C29.1085 23.6324 29.085 23.5162 29.085 23.3988C29.085 23.2814 29.1085 23.1652 29.1541 23.057C29.1998 22.9488 29.2667 22.8509 29.3508 22.769C29.5181 22.6021 29.7448 22.5083 29.9811 22.5083C30.2175 22.5083 30.4442 22.6021 30.6114 22.769L39.1264 31.2775C39.2105 31.3595 39.2774 31.4574 39.3231 31.5656C39.3687 31.6737 39.3922 31.79 39.3922 31.9074C39.3922 32.0248 39.3687 32.141 39.3231 32.2492C39.2774 32.3573 39.2105 32.4553 39.1264 32.5372C39.0444 32.6211 38.9464 32.6875 38.838 32.7324C38.7297 32.7774 38.6134 32.7999 38.4961 32.7987Z" fill="#000C1D"/>
<path d="M38.9597 35.5666C38.8425 35.5672 38.7263 35.5444 38.6181 35.4995C38.5099 35.4546 38.4117 35.3886 38.3294 35.3052C38.1623 35.1381 38.0685 34.9116 38.0685 34.6754C38.0685 34.4392 38.1623 34.2127 38.3294 34.0456C38.4266 33.8942 38.4607 33.7108 38.4245 33.5346C38.3428 33.1567 38.1479 32.8126 37.8655 32.5483C37.7006 32.3777 37.6084 32.1497 37.6084 31.9125C37.6084 31.6753 37.7006 31.4473 37.8655 31.2767C38.0328 31.1098 38.2595 31.0161 38.4958 31.0161C38.7322 31.0161 38.9589 31.1098 39.1261 31.2767C39.6687 31.8087 40.0377 32.4923 40.1846 33.2375C40.2552 33.6046 40.2381 33.9832 40.1348 34.3425C40.0315 34.7017 39.8448 35.0316 39.5899 35.3052C39.5076 35.3886 39.4094 35.4546 39.3012 35.4995C39.193 35.5444 39.0768 35.5672 38.9597 35.5666Z" fill="#000C1D"/>
<path d="M34.7142 39.2156C33.809 39.1752 32.9554 38.7829 32.3357 38.1224C32.2516 38.0404 32.1847 37.9425 32.139 37.8344C32.0934 37.7262 32.0698 37.61 32.0698 37.4926C32.0698 37.3752 32.0934 37.2589 32.139 37.1507C32.1847 37.0426 32.2516 36.9447 32.3357 36.8627C32.5029 36.6958 32.7296 36.6021 32.966 36.6021C33.2024 36.6021 33.4291 36.6958 33.5963 36.8627C33.858 37.1462 34.2041 37.3379 34.5834 37.4094C34.6697 37.4325 34.7598 37.4371 34.848 37.4227C34.9362 37.4084 35.0203 37.3755 35.0948 37.3262C35.1767 37.2421 35.2748 37.1753 35.383 37.1296C35.4913 37.084 35.6076 37.0605 35.725 37.0605C35.8425 37.0605 35.9588 37.084 36.0671 37.1296C36.1753 37.1753 36.2734 37.2421 36.3553 37.3262C36.5224 37.4933 36.6162 37.7198 36.6162 37.956C36.6162 38.1922 36.5224 38.4187 36.3553 38.5859C36.1398 38.7979 35.8828 38.9633 35.6005 39.0717C35.3181 39.18 35.0164 39.229 34.7142 39.2156Z" fill="#000C1D"/>
<path d="M22.9405 31.3124C22.7062 31.3129 22.4806 31.2236 22.3102 31.0629L19.5631 28.3059C19.3961 28.1388 19.3022 27.9123 19.3022 27.6761C19.3022 27.4399 19.3961 27.2133 19.5631 27.0462L27.7926 18.811C27.9598 18.6441 28.1865 18.5503 28.4229 18.5503C28.6593 18.5503 28.886 18.6441 29.0532 18.811L31.8122 21.568C31.8999 21.6495 31.9702 21.748 32.0189 21.8573C32.0677 21.9666 32.0939 22.0846 32.096 22.2043C32.0981 22.3239 32.0761 22.4428 32.0312 22.5538C31.9864 22.6648 31.9196 22.7656 31.8349 22.8502C31.7502 22.9349 31.6493 23.0016 31.5382 23.0464C31.4272 23.0913 31.3082 23.1132 31.1885 23.1111C31.0687 23.109 30.9506 23.0828 30.8412 23.0341C30.7318 22.9854 30.6333 22.9152 30.5517 22.8276L28.4229 20.7005L21.454 27.6761L23.5708 29.7913C23.6553 29.8743 23.7224 29.9732 23.7683 30.0824C23.8141 30.1915 23.8377 30.3088 23.8377 30.4271C23.8377 30.5455 23.8141 30.6626 23.7683 30.7718C23.7224 30.881 23.6553 30.9799 23.5708 31.0629C23.4011 31.2246 23.1751 31.3141 22.9405 31.3124Z" fill="#000C1D"/>
<path d="M15.508 15.5906C15.389 15.5921 15.2708 15.5697 15.1605 15.5248C15.0502 15.4799 14.95 15.4134 14.8658 15.3292L10.3824 10.8491C10.2154 10.682 10.1216 10.4555 10.1216 10.2193C10.1216 9.9831 10.2154 9.75654 10.3824 9.58942C10.5532 9.42461 10.7813 9.33252 11.0187 9.33252C11.2561 9.33252 11.4842 9.42461 11.6549 9.58942L16.1383 14.0695C16.3054 14.2366 16.3992 14.4631 16.3992 14.6993C16.3992 14.9355 16.3054 15.1621 16.1383 15.3292C16.056 15.4125 15.9578 15.4785 15.8496 15.5234C15.7414 15.5683 15.6252 15.5911 15.508 15.5906Z" fill="#000C1D"/>
<path d="M8.19425 12.2513C8.06756 12.241 7.94426 12.2052 7.83183 12.146C7.7194 12.0867 7.62017 12.0053 7.54014 11.9067L1.92692 4.77657C1.79261 4.60352 1.7258 4.38759 1.73893 4.16898C1.75205 3.95037 1.84425 3.74399 1.99831 3.58822L4.37679 1.21152C4.53136 1.05524 4.73824 0.961538 4.95773 0.948378C5.17723 0.935219 5.39387 1.00353 5.56604 1.14022L12.7015 6.74921C12.8005 6.82541 12.8816 6.92238 12.9391 7.03324C12.9966 7.1441 13.0292 7.2662 13.0345 7.39096C13.0411 7.5177 13.0212 7.64439 12.9762 7.76305C12.9311 7.8817 12.8619 7.98975 12.7728 8.08022L8.87212 11.978C8.78486 12.0688 8.67931 12.1401 8.56247 12.1872C8.44563 12.2343 8.32015 12.2561 8.19425 12.2513ZM3.77027 4.33689L8.2775 10.0172L10.763 7.53356L5.06654 3.04156L3.77027 4.33689Z" fill="#000C1D"/>
<path d="M29.9811 24.29C29.8639 24.2913 29.7475 24.2687 29.6392 24.2238C29.5309 24.1789 29.4328 24.1125 29.3508 24.0286C29.2667 23.9467 29.1998 23.8488 29.1541 23.7406C29.1085 23.6324 29.085 23.5162 29.085 23.3988C29.085 23.2814 29.1085 23.1652 29.1541 23.057C29.1998 22.9488 29.2667 22.8509 29.3508 22.769L30.5401 21.5806C30.6221 21.4965 30.7201 21.4297 30.8283 21.3841C30.9366 21.3384 31.0529 21.3149 31.1704 21.3149C31.2879 21.3149 31.4042 21.3384 31.5124 21.3841C31.6207 21.4297 31.7187 21.4965 31.8007 21.5806C31.9677 21.7477 32.0615 21.9742 32.0615 22.2104C32.0615 22.4466 31.9677 22.6732 31.8007 22.8403L30.6114 24.0286C30.5291 24.1119 30.4309 24.178 30.3227 24.2229C30.2144 24.2678 30.0983 24.2906 29.9811 24.29Z" fill="#000C1D"/>
<path d="M23.0953 31.1699C22.8598 31.1647 22.6349 31.0714 22.465 30.9084C22.2979 30.7413 22.2041 30.5148 22.2041 30.2786C22.2041 30.0424 22.2979 29.8159 22.465 29.6487L23.6542 28.4604C23.8233 28.303 24.0469 28.2173 24.278 28.2213C24.509 28.2254 24.7295 28.3189 24.893 28.4822C25.0564 28.6455 25.15 28.8658 25.154 29.0967C25.1581 29.3276 25.0724 29.5511 24.9148 29.72L23.7256 30.9084C23.557 31.0734 23.3312 31.1671 23.0953 31.1699Z" fill="#000C1D"/>
<path d="M10.2276 24.4082C10.1104 24.4088 9.99424 24.3859 9.88601 24.341C9.77777 24.2961 9.67961 24.2301 9.59726 24.1468C9.43023 23.9797 9.33643 23.7532 9.33643 23.517C9.33643 23.2808 9.43023 23.0542 9.59726 22.8871L22.0724 10.4213C22.2415 10.2639 22.4651 10.1782 22.6962 10.1823C22.9273 10.1863 23.1477 10.2799 23.3111 10.4432C23.4745 10.6065 23.5682 10.8267 23.5723 11.0576C23.5763 11.2885 23.4905 11.512 23.333 11.681L10.8579 24.1468C10.7759 24.2306 10.6778 24.297 10.5695 24.342C10.4612 24.3869 10.3448 24.4095 10.2276 24.4082Z" fill="#000C1D"/>
<path d="M14.8541 29.126C14.6186 29.1209 14.3936 29.0276 14.2238 28.8646C14.0567 28.6975 13.9629 28.4709 13.9629 28.2347C13.9629 27.9986 14.0567 27.7721 14.2238 27.605L26.6989 15.1748C26.7805 15.0872 26.879 15.017 26.9884 14.9683C27.0978 14.9196 27.2159 14.8934 27.3357 14.8913C27.4554 14.8891 27.5744 14.9111 27.6855 14.9559C27.7965 15.0008 27.8974 15.0675 27.9821 15.1521C28.0668 15.2368 28.1336 15.3376 28.1784 15.4486C28.2233 15.5596 28.2453 15.6784 28.2432 15.7981C28.2411 15.9178 28.2149 16.0358 28.1661 16.1451C28.1174 16.2544 28.0471 16.3528 27.9595 16.4344L15.5081 28.8646C15.4226 28.9503 15.3205 29.0176 15.208 29.0625C15.0956 29.1075 14.9751 29.1291 14.8541 29.126Z" fill="#000C1D"/>
<path d="M30.968 10.9321C30.8509 10.9326 30.7347 10.9098 30.6265 10.8649C30.5183 10.82 30.4201 10.754 30.3378 10.6707L27.7809 8.04437C27.6139 7.87726 27.52 7.6507 27.52 7.41451C27.52 7.17833 27.6139 6.95184 27.7809 6.78472C27.8629 6.70064 27.9609 6.63379 28.0691 6.58817C28.1774 6.54254 28.2937 6.51904 28.4112 6.51904C28.5287 6.51904 28.645 6.54254 28.7532 6.58817C28.8615 6.63379 28.9595 6.70064 29.0415 6.78472L31.6221 9.36343C31.7063 9.44536 31.7732 9.54335 31.8188 9.65152C31.8645 9.75969 31.888 9.87589 31.888 9.99329C31.888 10.1107 31.8645 10.2269 31.8188 10.3351C31.7732 10.4432 31.7063 10.5411 31.6221 10.6231C31.5428 10.7198 31.443 10.7977 31.3299 10.8511C31.2168 10.9045 31.0932 10.9322 30.968 10.9321Z" fill="#000C1D"/>
<path d="M33.0612 10.3384C32.9437 10.3411 32.827 10.3192 32.7184 10.2742C32.6099 10.2291 32.512 10.162 32.4309 10.077C32.3468 9.99508 32.2799 9.89709 32.2342 9.78892C32.1885 9.68075 32.165 9.56455 32.165 9.44715C32.165 9.32975 32.1885 9.21356 32.2342 9.10539C32.2799 8.99722 32.3468 8.8993 32.4309 8.81737L35.4278 5.8227C35.5969 5.66527 35.8205 5.57956 36.0516 5.58363C36.2827 5.58771 36.5031 5.68123 36.6665 5.84453C36.83 6.00782 36.9236 6.22812 36.9276 6.45901C36.9317 6.68991 36.8459 6.91339 36.6884 7.08235L33.6915 10.077C33.6092 10.1603 33.511 10.2264 33.4027 10.2713C33.2945 10.3161 33.1784 10.339 33.0612 10.3384Z" fill="#000C1D"/>
<path d="M28.875 6.16766C28.6396 6.16254 28.4146 6.06927 28.2447 5.90626C28.0777 5.73914 27.9839 5.51258 27.9839 5.2764C27.9839 5.04021 28.0777 4.81372 28.2447 4.64661L30.9681 1.92524C31.1372 1.7678 31.3608 1.6821 31.5919 1.68617C31.823 1.69025 32.0434 1.78385 32.2068 1.94714C32.3703 2.11044 32.4639 2.33073 32.4679 2.56163C32.472 2.79252 32.3862 3.01593 32.2287 3.18489L29.5053 5.90626C29.3354 6.06927 29.1105 6.16254 28.875 6.16766Z" fill="#000C1D"/>
<path d="M28.423 8.3537C28.304 8.35451 28.186 8.33184 28.0758 8.28697C27.9656 8.24211 27.8654 8.1759 27.7809 8.09223C27.4426 7.73736 27.2588 7.26312 27.2695 6.77318C27.3029 5.9638 27.6531 5.19995 28.2446 4.64605C28.3266 4.56197 28.4247 4.49512 28.5329 4.44949C28.6412 4.40386 28.7574 4.38037 28.8749 4.38037C28.9924 4.38037 29.1087 4.40386 29.217 4.44949C29.3252 4.49512 29.4232 4.56197 29.5052 4.64605C29.6723 4.81317 29.7661 5.03966 29.7661 5.27584C29.7661 5.51203 29.6723 5.73859 29.5052 5.9057C29.3667 6.02041 29.2546 6.16369 29.1766 6.32573C29.0986 6.48777 29.0565 6.6647 29.0533 6.84447C29.2204 7.01159 29.3142 7.23815 29.3142 7.47433C29.3142 7.71052 29.2204 7.93701 29.0533 8.10412C28.8829 8.26482 28.6573 8.35416 28.423 8.3537Z" fill="#000C1D"/>
<path d="M31.5506 11.0636C31.3084 11.0698 31.0676 11.0267 30.8427 10.9368C30.6177 10.8469 30.4135 10.7121 30.2424 10.5408C30.1583 10.4588 30.0914 10.3609 30.0457 10.2527C30.0001 10.1446 29.9766 10.0284 29.9766 9.91097C29.9766 9.79357 30.0001 9.67738 30.0457 9.56921C30.0914 9.46104 30.1583 9.36304 30.2424 9.28111C30.4092 9.11781 30.6333 9.02638 30.8668 9.02638C31.1003 9.02638 31.3244 9.11781 31.4911 9.28111C31.6718 9.28209 31.8502 9.24193 32.013 9.16368C32.1758 9.08544 32.3186 8.97116 32.4306 8.82953C32.5997 8.6721 32.8233 8.5864 33.0544 8.59047C33.2855 8.59454 33.506 8.68814 33.6694 8.85144C33.8328 9.01473 33.9264 9.23502 33.9305 9.46592C33.9346 9.69682 33.8488 9.92023 33.6912 10.0892C33.245 10.5497 32.6751 10.8716 32.0501 11.0161C31.8857 11.0495 31.7183 11.0654 31.5506 11.0636Z" fill="#000C1D"/>
<path d="M22.7028 11.9429C22.52 11.9412 22.3419 11.8847 22.1914 11.781C22.0409 11.6772 21.925 11.5308 21.8585 11.3606C21.2913 9.95028 21.1573 8.40317 21.4734 6.91645C21.7895 5.42972 22.5415 4.07071 23.6335 3.01267C24.7255 1.95463 26.108 1.24552 27.6049 0.975634C29.1018 0.705746 30.6452 0.887318 32.0384 1.49728C32.1564 1.53299 32.2658 1.59278 32.3596 1.67288C32.4533 1.75297 32.5294 1.85165 32.5831 1.96264C32.6368 2.07362 32.6668 2.1945 32.6713 2.31768C32.6758 2.44085 32.6547 2.56362 32.6093 2.67823C32.564 2.79284 32.4953 2.89678 32.4076 2.98351C32.32 3.07025 32.2153 3.13793 32.1002 3.18218C31.9851 3.22643 31.862 3.24633 31.7388 3.24064C31.6156 3.23495 31.4949 3.20378 31.3843 3.1491C30.31 2.6688 29.1163 2.5213 27.9572 2.72567C26.7982 2.93003 25.7271 3.47689 24.8821 4.2956C24.0372 5.11431 23.4573 6.1673 23.2172 7.31863C22.9771 8.46996 23.0879 9.6668 23.5353 10.7546C23.5829 10.8665 23.607 10.987 23.6062 11.1086C23.6054 11.2302 23.5797 11.3504 23.5307 11.4617C23.4817 11.573 23.4104 11.6731 23.3212 11.7559C23.232 11.8386 23.1268 11.9023 23.0121 11.9429C22.9096 11.9594 22.8053 11.9594 22.7028 11.9429Z" fill="#000C1D"/>
<path d="M30.0165 17.1593C28.9877 17.1605 27.9675 16.9712 27.0078 16.6008C26.8951 16.5576 26.7923 16.4923 26.7053 16.4087C26.6183 16.3252 26.5489 16.2251 26.5012 16.1143C26.4536 16.0036 26.4286 15.8844 26.4278 15.7639C26.4269 15.6433 26.4502 15.5239 26.4963 15.4125C26.5382 15.2989 26.6028 15.1949 26.6861 15.1071C26.7694 15.0193 26.8698 14.9493 26.9811 14.9015C27.0924 14.8537 27.2122 14.829 27.3333 14.829C27.4545 14.829 27.5743 14.8537 27.6856 14.9015C28.7925 15.3366 30.0047 15.4299 31.1653 15.1695C32.3259 14.909 33.3816 14.3067 34.1961 13.4404C35.0105 12.5741 35.5462 11.4836 35.7339 10.3099C35.9217 9.13617 35.7528 7.93314 35.2492 6.85632C35.1986 6.74899 35.17 6.63264 35.165 6.51412C35.16 6.3956 35.1788 6.2773 35.2201 6.16611C35.2615 6.05492 35.3247 5.95311 35.4059 5.86663C35.4872 5.78015 35.5849 5.71078 35.6934 5.66253C35.8018 5.61428 35.9188 5.58813 36.0375 5.58564C36.1562 5.58316 36.2742 5.60435 36.3845 5.64802C36.4949 5.6917 36.5955 5.75694 36.6803 5.83994C36.7651 5.92294 36.8324 6.02208 36.8784 6.13144C37.5732 7.57713 37.8077 9.2009 37.5504 10.7839C37.2931 12.3669 36.5564 13.833 35.4395 14.9847C34.7235 15.6863 33.8758 16.2395 32.9452 16.6127C32.0145 16.9859 31.0192 17.1717 30.0165 17.1593Z" fill="#000C1D"/>
<path d="M7.87277 38.0985C5.78478 38.0985 3.78233 37.2697 2.3059 35.7944C0.829465 34.3191 0 32.3181 0 30.2316C0 28.1452 0.829465 26.1442 2.3059 24.6689C3.78233 23.1936 5.78478 22.3647 7.87277 22.3647C8.67962 22.3674 9.48146 22.4916 10.2513 22.7331C10.3642 22.7682 10.4691 22.8254 10.5597 22.9014C10.6504 22.9774 10.725 23.0707 10.7792 23.1757C10.8334 23.2808 10.8662 23.3955 10.8756 23.5133C10.885 23.6312 10.8709 23.7498 10.834 23.8621C10.799 23.9735 10.742 24.0767 10.6666 24.1659C10.5912 24.2551 10.4988 24.3284 10.3947 24.3815C10.2907 24.4346 10.177 24.4664 10.0605 24.4752C9.94402 24.4839 9.82695 24.4694 9.71611 24.4325C8.49269 24.0414 7.17684 24.047 5.95677 24.4483C4.7367 24.8497 3.6749 25.6264 2.92327 26.6672C2.17164 27.7081 1.76867 28.9598 1.77199 30.2433C1.77532 31.5268 2.1848 32.7764 2.94182 33.8134C3.69884 34.8503 4.76464 35.6215 5.98678 36.0166C7.20892 36.4116 8.52475 36.4103 9.74613 36.0129C10.9675 35.6155 12.0318 34.8423 12.7868 33.8039C13.5419 32.7655 13.9489 31.5152 13.9498 30.2316C13.9526 29.7107 13.8886 29.1915 13.7595 28.6868C13.7291 28.5744 13.7213 28.4572 13.7366 28.3418C13.7518 28.2263 13.7899 28.1151 13.8486 28.0145C13.9072 27.9139 13.9852 27.8259 14.0781 27.7557C14.1711 27.6855 14.277 27.6344 14.3898 27.6054C14.503 27.5749 14.6212 27.5669 14.7375 27.582C14.8538 27.5971 14.966 27.635 15.0676 27.6935C15.1692 27.752 15.2583 27.83 15.3297 27.923C15.4012 28.0159 15.4536 28.122 15.4839 28.2352C15.6503 28.8876 15.7342 29.5583 15.7337 30.2316C15.7305 32.315 14.9017 34.3124 13.4285 35.7867C11.9554 37.261 9.95773 38.0922 7.87277 38.0985Z" fill="#000C1D"/>
<path d="M7.88491 34.2717C7.08469 34.2741 6.30176 34.0391 5.63526 33.5966C4.96876 33.1541 4.44866 32.5238 4.1408 31.7858C3.83294 31.0477 3.75117 30.2349 3.90584 29.4503C4.06051 28.6658 4.44468 27.9448 5.00969 27.3786C5.57469 26.8123 6.29512 26.4263 7.07979 26.2694C7.86446 26.1125 8.67809 26.1919 9.41762 26.4974C10.1572 26.8028 10.7893 27.3207 11.2341 27.9854C11.679 28.6501 11.9164 29.4317 11.9164 30.2313C11.918 30.7613 11.8149 31.2865 11.613 31.7766C11.4111 32.2668 11.1144 32.7122 10.7398 33.0876C10.3653 33.4629 9.92037 33.7607 9.43047 33.9639C8.94057 34.1671 8.41534 34.2717 7.88491 34.2717ZM7.88491 27.9854C7.28879 27.9854 6.71709 28.2219 6.29557 28.6431C5.87405 29.0643 5.63726 29.6356 5.63726 30.2313C5.63348 30.527 5.68946 30.8205 5.80185 31.0941C5.91424 31.3677 6.08071 31.6159 6.29133 31.8237C6.55271 32.0901 6.87611 32.2877 7.23258 32.3987C7.58905 32.5097 7.96748 32.5307 8.33406 32.4599C8.70065 32.389 9.04396 32.2285 9.33328 31.9926C9.62259 31.7568 9.84888 31.453 9.99195 31.1083C10.135 30.7637 10.1904 30.389 10.1532 30.0178C10.1159 29.6465 9.98713 29.2903 9.77841 28.9809C9.56968 28.6716 9.2875 28.4187 8.95707 28.2449C8.62664 28.0712 8.25827 27.9821 7.88491 27.9854Z" fill="#000C1D"/>
</svg>
