<svg width="35" height="43" viewBox="0 0 35 43" fill="none" xmlns="http://www.w3.org/2000/svg">
<path fill-rule="evenodd" clip-rule="evenodd" d="M30.3341 16.342H30.2643C30.2813 16.5356 30.2939 16.7296 30.3019 16.9239C31.836 17.4943 32.5733 19.4313 32.0025 21.4515C31.727 22.5571 31.0261 23.5093 30.0521 24.1015C29.5858 24.3665 29.0539 24.4943 28.518 24.4699C26.1395 29.0807 21.8107 32.0041 17.3391 32.0041C12.8795 32.0041 8.55064 29.0808 6.13648 24.5056C5.41375 24.5308 4.70697 24.2897 4.15045 23.8282C3.41574 23.211 2.89195 22.3802 2.65201 21.4515C2.08118 19.4313 2.83039 17.4943 4.35262 16.9239C4.36108 16.7296 4.37391 16.5356 4.39109 16.342H4.36679C4.31923 16.3498 4.27083 16.3538 4.22201 16.3538C3.98545 16.3538 3.7586 16.2598 3.59133 16.0927C3.44516 15.9466 3.35495 15.7551 3.33452 15.5514C3.33251 15.5338 3.33103 15.516 3.33008 15.4982V15.4625V14.9634C3.33008 11.2444 4.80856 7.67773 7.44027 5.048C10.072 2.41826 13.6413 0.940918 17.3631 0.940918C21.0849 0.940918 24.6543 2.41826 27.286 5.048C29.9177 7.67773 31.3962 11.2444 31.3962 14.9634V15.3437V15.4863C31.3839 15.7196 31.2816 15.939 31.1109 16.0986C31.0293 16.1748 30.9352 16.2345 30.8336 16.2757C30.7199 16.3267 30.5956 16.3538 30.4686 16.3538C30.4232 16.3532 30.3783 16.3492 30.3341 16.342ZM6.28805 14.5357H28.4052C26.645 13.7806 22.9193 13.0145 17.3512 13.0145C11.7831 13.0145 8.05175 13.7806 6.28805 14.5357ZM29.4556 13.0786C26.0478 11.3446 19.1005 11.2319 17.3512 11.2319C15.6016 11.2319 8.64519 11.3446 5.23485 13.0797C5.63489 10.4464 6.88682 8.00046 8.81979 6.1282C11.105 3.91475 14.1627 2.67695 17.3453 2.67695C20.5279 2.67695 23.5856 3.91475 25.8708 6.1282C27.8035 8.00021 29.0554 10.4458 29.4556 13.0786ZM28.4695 16.342H6.18195C6.14168 16.7285 6.12252 17.1172 6.12459 17.5062C6.12992 17.7594 6.04203 18.0058 5.87762 18.1986C5.71321 18.3913 5.48372 18.5171 5.23266 18.552H5.0305C4.44777 18.7183 4.03154 19.7403 4.36452 20.9287C4.50886 21.484 4.82017 21.9817 5.25645 22.3547C5.37927 22.469 5.527 22.5532 5.68799 22.6006C5.84898 22.6481 6.01882 22.6574 6.18406 22.628C6.39815 22.5445 6.63486 22.5393 6.85245 22.6132C7.07003 22.6871 7.2545 22.8355 7.3733 23.0321C9.43069 27.3577 13.3195 30.1622 17.2916 30.1622C21.2636 30.1622 25.1643 27.3695 27.2098 23.0321C27.3128 22.8196 27.4949 22.6558 27.7172 22.5758C27.9394 22.4959 28.1842 22.5061 28.3991 22.6042C28.5271 22.6453 28.6626 22.6581 28.796 22.6417C28.9295 22.6253 29.0578 22.5801 29.1721 22.5092C29.7351 22.1464 30.1357 21.58 30.29 20.9287C30.6229 19.7403 30.2067 18.7064 29.624 18.552H29.4218C29.3027 18.552 29.1847 18.5282 29.0749 18.4819C28.9651 18.4356 28.8657 18.3679 28.7826 18.2826C28.6994 18.1973 28.6342 18.0962 28.5908 17.9853C28.5474 17.8744 28.5267 17.7559 28.5299 17.6369L29.4218 17.5062H28.5299C28.5294 17.1172 28.5093 16.7286 28.4695 16.342ZM0.891931 42.854H33.7982C33.9154 42.854 34.0313 42.8309 34.1396 42.7861C34.2478 42.7413 34.3461 42.6757 34.4289 42.5929C34.5117 42.5102 34.5774 42.4119 34.6223 42.3038C34.6671 42.1956 34.6902 42.0798 34.6902 41.9627V40.1445C34.6902 34.7969 31.8241 30.6377 28.1612 30.6377H24.3319C24.1865 30.639 24.0435 30.6753 23.9152 30.7436C23.7868 30.8119 23.6768 30.9101 23.5946 31.0299C22.108 33.2996 20.0387 33.7631 17.351 33.7631C14.6634 33.7631 12.6297 33.2996 11.0956 31.0299C11.0134 30.9101 10.9034 30.8119 10.775 30.7436C10.6466 30.6753 10.5037 30.639 10.3583 30.6377H6.52894C2.87797 30.6377 0 34.8326 0 40.1445V41.9627C0 42.1991 0.0939839 42.4258 0.261253 42.5929C0.428523 42.7601 0.655376 42.854 0.891931 42.854ZM32.9063 41.0715H1.78386L1.7363 40.1445C1.7363 36.0209 3.9245 32.4559 6.49326 32.4559H9.8707C11.94 35.201 14.7823 35.5813 17.3154 35.5813C19.8484 35.5813 22.6907 35.201 24.76 32.4559H28.1493C30.73 32.4559 32.9063 35.9734 32.9063 40.1445V41.0715Z" fill="#000C1D"/>
</svg>
