<svg width="100" height="100" viewBox="0 0 100 100" fill="none" xmlns="http://www.w3.org/2000/svg">
<rect width="99.6117" height="99.6117" rx="24" fill="#002358"/>
<path d="M44.2107 70.1368L35.3302 52.8283C34.6137 52.866 33.5767 52.8848 32.2192 52.8848H24.979V70.1368H19.2095V29.128H32.2192C34.9342 29.128 37.2345 29.2977 39.12 29.6371C41.0431 29.9387 42.8155 30.5044 44.437 31.334C46.0585 32.1636 47.2652 33.3891 48.0571 35.0106C48.8867 36.5944 49.3015 38.5741 49.3015 40.9498C49.3015 46.7948 46.5864 50.4526 41.1563 51.9232L50.659 70.1368H44.2107ZM32.6717 33.9925H24.979V48.0203H32.6717C34.4063 48.0203 35.8204 47.9638 36.914 47.8506C38.0453 47.6998 39.1388 47.3981 40.1947 46.9456C41.2883 46.4931 42.0802 45.7766 42.5704 44.7962C43.0983 43.8157 43.3623 42.5713 43.3623 41.063C43.3623 39.8186 43.1737 38.7627 42.7966 37.8954C42.4195 37.0281 41.9293 36.3493 41.326 35.8591C40.7603 35.3312 39.9873 34.9352 39.0068 34.6712C38.0264 34.3696 37.0648 34.181 36.1221 34.1056C35.1794 34.0302 34.0292 33.9925 32.6717 33.9925Z" fill="white"/>
<path d="M75.6439 70.1368V65.7814C73.5699 69.1752 70.3835 70.8721 66.0846 70.8721C59.5986 70.8721 56.3556 66.9692 56.3556 59.1634V39.7054H61.5029V57.6362C61.5029 60.4267 61.9177 62.595 62.7473 64.141C63.6147 65.6494 65.3304 66.4036 67.8947 66.4036C70.3835 66.4036 72.2878 65.5551 73.6076 63.8582C74.9651 62.1613 75.6439 59.6913 75.6439 56.4483V39.7054H80.7912V70.1368H75.6439Z" fill="white"/>
</svg>
