<svg width="51" height="50" viewBox="0 0 51 50" fill="none" xmlns="http://www.w3.org/2000/svg">
<rect x="0.820312" width="50" height="50" rx="10" fill="#086AFF"/>
<path fill-rule="evenodd" clip-rule="evenodd" d="M29.7296 17.8396C29.3896 16.8436 29.3209 15.7734 29.5329 14.7395C29.7617 13.6241 30.3075 12.5982 31.1049 11.7848C31.9462 10.9728 33.0069 10.4244 34.1562 10.2075C35.3056 9.99051 36.4934 10.1144 37.5732 10.5638C37.6623 10.5988 37.7437 10.6511 37.8127 10.7175C37.8816 10.7839 37.9368 10.8633 37.9751 10.951C38.0133 11.0387 38.034 11.1331 38.0357 11.2288C38.0375 11.3245 38.0203 11.4196 37.9853 11.5087C37.9503 11.5977 37.8981 11.6791 37.8316 11.748C37.8241 11.7558 37.8164 11.7634 37.8085 11.7708C37.7734 11.8297 37.7301 11.8834 37.6797 11.9303L35.6596 13.9489C35.6483 13.961 35.6365 13.9728 35.6243 13.9842C35.6103 13.9975 35.5954 14.0107 35.5805 14.0228C35.5039 14.0949 35.4407 14.1803 35.3941 14.2749C35.3403 14.384 35.3097 14.5031 35.3042 14.6245L37.1294 16.4484C37.3572 16.4145 37.5663 16.3006 37.7183 16.126C37.7618 16.0855 37.8098 16.0508 37.861 16.0224L39.8486 14.0363C39.88 13.9454 39.9292 13.8616 39.9933 13.7897C40.0615 13.7134 40.145 13.6523 40.2384 13.6104C40.3318 13.5685 40.4331 13.5468 40.5355 13.5467C40.6378 13.5467 40.7391 13.5681 40.8326 13.6099C40.9261 13.6516 41.0098 13.7126 41.078 13.7888C41.1463 13.8651 41.1977 13.9549 41.2289 14.0523C41.7678 15.158 41.9518 16.4031 41.7556 17.6173C41.5595 18.8315 40.9928 19.9555 40.1331 20.8356C39.5835 21.3727 38.9329 21.7957 38.2189 22.0801C37.5048 22.3645 36.7414 22.5048 35.9728 22.4927C35.2406 22.4922 34.5143 22.3657 33.8258 22.1189L18.5076 37.4352C17.7601 38.2137 16.7357 38.6663 15.6565 38.695C14.9611 38.7087 14.2884 38.4475 13.7848 37.9682C13.4903 37.6587 13.2727 37.2842 13.1498 36.8752C13.0268 36.4661 13.0018 36.0339 13.0769 35.6134C13.2254 34.7124 13.6607 33.8832 14.3182 33.249L29.7296 17.8396ZM38.7755 17.1629L40.2854 15.6542C40.4097 16.1795 40.4367 16.7263 40.3616 17.2672C40.2367 18.1674 39.8353 19.0067 39.2127 19.6692C38.5901 20.3318 37.7771 20.7849 36.8858 20.966C35.9946 21.1471 35.069 21.0474 34.2369 20.6805C34.1711 20.6522 34.1015 20.6339 34.0306 20.626C34.0003 20.6083 33.9687 20.5928 33.9361 20.5796C33.8455 20.5431 33.7485 20.5251 33.6508 20.5269C33.5532 20.5286 33.4569 20.55 33.3676 20.5897C33.2784 20.6294 33.1981 20.6867 33.1315 20.7581L17.4796 36.408C16.6068 37.2705 15.3946 37.5127 14.8128 36.941C14.6816 36.7883 14.5872 36.6076 14.5368 36.4127C14.4863 36.2179 14.4812 36.0141 14.5219 35.8169C14.6239 35.2282 14.9129 34.6879 15.3461 34.2761L31.0563 18.568C31.1249 18.5012 31.1794 18.4214 31.2166 18.3332C31.2539 18.245 31.2731 18.1502 31.2731 18.0545C31.2731 17.9587 31.2539 17.864 31.2166 17.7758L31.2139 17.7692C31.2056 17.7042 31.1885 17.6404 31.163 17.5797C30.8488 16.776 30.7731 15.8987 30.9451 15.0531C31.1171 14.2075 31.5295 13.4293 32.1328 12.812C32.7756 12.203 33.582 11.7944 34.4534 11.6361C34.9465 11.5465 35.4483 11.5392 35.9389 11.6121L34.5959 12.9477C34.5844 12.9596 34.5734 12.9717 34.5629 12.9842C34.1871 13.2963 33.9426 13.739 33.8793 14.2241C33.8141 14.7233 33.9459 15.2282 34.2467 15.632C34.2701 15.655 34.2947 15.6763 34.3205 15.6959L36.0334 17.4076C36.0534 17.4339 36.0752 17.459 36.0988 17.4826C36.127 17.5099 36.1563 17.5359 36.1866 17.5607L36.2056 17.5796C36.2717 17.649 36.3516 17.7037 36.4401 17.7404C36.4705 17.753 36.5018 17.7634 36.5336 17.7716C36.548 17.7777 36.5625 17.7837 36.5771 17.7894C36.7551 17.8593 36.9452 17.8933 37.1364 17.8897C37.6797 17.8612 38.1951 17.6497 38.6003 17.293C38.6649 17.2589 38.724 17.215 38.7755 17.1629ZM38.472 39.7449C38.4193 39.7668 38.3644 39.7822 38.3083 39.791C38.1284 39.862 37.9349 39.8985 37.738 39.8966C36.9503 39.8514 36.2104 39.5043 35.6724 38.9276C35.6379 38.8906 35.6077 38.8505 35.5819 38.8079L27.73 30.9426C27.6376 30.8827 27.56 30.8026 27.503 30.7084C27.4461 30.6141 27.4113 30.5082 27.4014 30.3985C27.3914 30.2889 27.4065 30.1784 27.4455 30.0755C27.4845 29.9725 27.5465 29.8797 27.6266 29.8042C27.7068 29.7286 27.803 29.6722 27.9081 29.6393C28.0133 29.6064 28.1245 29.5977 28.2335 29.6141C28.3425 29.6304 28.4463 29.6713 28.5371 29.7335C28.628 29.7958 28.7035 29.8779 28.758 29.9736L36.6411 37.8509C36.6616 37.8663 36.6814 37.8828 36.7004 37.9004C36.8347 38.0682 37.0041 38.2046 37.1967 38.3C37.3808 38.3911 37.5817 38.4428 37.7867 38.4518L39.9933 36.2376C39.977 36.0472 39.9247 35.8613 39.839 35.6901C39.7438 35.4997 39.6094 35.3316 39.4446 35.1967C39.3969 35.149 39.3566 35.0954 39.3243 35.0376L31.5605 27.2796C31.432 27.1418 31.3621 26.9597 31.3654 26.7714C31.3688 26.5831 31.4451 26.4034 31.5783 26.2703C31.7116 26.1371 31.8914 26.0608 32.0798 26.0575C32.2682 26.0542 32.4506 26.124 32.5885 26.2524L40.4629 34.1211C40.5032 34.1614 40.5383 34.206 40.5678 34.2538C41.0882 34.7864 41.4026 35.4882 41.452 36.2336C41.458 36.4339 41.4232 36.6334 41.3499 36.8199C41.2766 37.0065 41.1661 37.1762 41.0253 37.3189C40.9823 37.3544 40.9357 37.3846 40.8865 37.4091L38.7075 39.5865C38.6403 39.6544 38.5603 39.7083 38.472 39.7449ZM21.1384 24.2984C21.2267 24.335 21.3214 24.3536 21.417 24.3532C21.5119 24.3555 21.6064 24.3386 21.6947 24.3036C21.783 24.2687 21.8633 24.2163 21.9309 24.1497C21.9996 24.0829 22.0541 24.003 22.0913 23.9148C22.1285 23.8266 22.1477 23.7318 22.1477 23.6361C22.1477 23.5404 22.1285 23.4456 22.0913 23.3574C22.0541 23.2692 21.9996 23.1893 21.9309 23.1225L20.069 21.2523L22.8328 18.5487L24.6269 20.3414C24.6937 20.4099 24.7736 20.4644 24.8619 20.5016C24.9502 20.5389 25.045 20.558 25.1408 20.558C25.2366 20.558 25.3315 20.5389 25.4197 20.5016C25.508 20.4644 25.588 20.4099 25.6548 20.3414C25.791 20.2051 25.8675 20.0204 25.8675 19.8278C25.8675 19.6352 25.791 19.4505 25.6548 19.3142L23.308 16.9788C23.1692 16.8473 22.9853 16.7739 22.794 16.7739C22.6027 16.7739 22.4188 16.8473 22.28 16.9788L18.5174 20.729C18.3812 20.8653 18.3047 21.05 18.3047 21.2426C18.3047 21.4352 18.3812 21.6199 18.5174 21.7562L20.903 24.14C20.9701 24.2079 21.0502 24.2618 21.1384 24.2984ZM11.5728 22.3756C11.5495 22.3579 11.5271 22.3387 11.5058 22.3183L10.3517 21.1651C10.3304 21.1435 10.3104 21.1207 10.2919 21.0967C10.1553 20.9546 10.0438 20.7901 9.96232 20.6102C9.86742 20.4006 9.81521 20.1742 9.80871 19.9442C9.80653 19.792 9.83454 19.6407 9.89113 19.4994C9.9344 19.3913 9.99372 19.2905 10.0669 19.2005C10.0859 19.1758 10.1066 19.1523 10.1288 19.13C10.5291 18.7301 11.0945 17.8496 11.7021 17.7605C11.8957 17.6979 12.1021 17.676 12.3082 17.6985C12.6048 17.731 12.8821 17.8535 13.1042 18.0465L13.2145 17.9363C13.0421 17.71 12.9247 17.4452 12.8733 17.163C12.8343 16.9606 12.8448 16.7519 12.9039 16.5545C12.963 16.3571 13.0689 16.1768 13.2127 16.0292C13.2574 15.9778 13.3089 15.933 13.3656 15.8959L14.4823 14.78L14.4832 14.7791L14.5228 14.7395C14.5339 14.7276 14.5454 14.7161 14.5573 14.7051L17.9937 11.2712C18.0732 11.19 18.1711 11.1291 18.2791 11.0937C18.3872 11.0583 18.5022 11.0493 18.6144 11.0677L24.0741 11.8623C24.2072 11.8823 24.3325 11.9378 24.4367 12.0231C24.5408 12.1084 24.6199 12.2203 24.6657 12.3468C24.7045 12.4763 24.7079 12.6138 24.6755 12.7451C24.6431 12.8763 24.5761 12.9965 24.4814 13.093L18.6788 18.8913C18.659 18.9173 18.6375 18.942 18.6142 18.9654L17.2953 20.2832C17.2176 20.3581 17.125 20.414 17.0247 20.4481C17.0032 20.4583 16.9815 20.468 16.9594 20.4769C16.8075 20.5386 16.6446 20.5684 16.4808 20.5643C16.1888 20.554 15.9067 20.4715 15.6582 20.3275L15.5013 20.4802C15.5179 20.5061 15.5337 20.5325 15.5487 20.5594C15.6412 20.7261 15.6996 20.9095 15.7203 21.099C15.7411 21.2885 15.7238 21.4802 15.6696 21.6629C15.6457 21.7435 15.6148 21.8216 15.5773 21.8965C15.539 22.001 15.4738 22.0786 15.4045 22.1633C15.0228 22.5634 14.6221 22.9449 14.231 23.3357C14.1437 23.424 14.0308 23.4793 13.9157 23.5259C13.7757 23.5825 13.6256 23.6101 13.4746 23.607C13.2443 23.6011 13.0176 23.5491 12.8078 23.4543C12.315 23.2315 11.9475 22.75 11.5728 22.3756ZM14.0661 21.0497C14.0916 21.0874 14.1208 21.1228 14.1535 21.1555C14.1909 21.1864 14.2224 21.2238 14.2466 21.2657L13.3928 22.1189C13.3526 22.092 13.3151 22.0615 13.2806 22.0275C13.2678 22.0138 13.2545 22.0006 13.2407 21.9879L12.01 20.7581C11.9978 20.7467 11.9851 20.7357 11.9722 20.7252L11.3894 20.1379C11.3769 20.1253 11.364 20.1132 11.3506 20.1016C11.3306 20.0749 11.3125 20.047 11.2962 20.0179L12.142 19.1727C12.1712 19.1889 12.1992 19.2071 12.2258 19.2271C12.2375 19.2404 12.2496 19.2533 12.2622 19.2658L12.5919 19.5952C12.7309 19.7263 12.9148 19.7991 13.1059 19.7987C13.1448 19.7989 13.1835 19.7959 13.2218 19.7899C13.3703 19.7669 13.5094 19.6995 13.62 19.5952L14.7449 18.4614C14.8163 18.3949 14.8737 18.3146 14.9134 18.2255C14.9532 18.1363 14.9745 18.0401 14.9763 17.9425C14.978 17.8449 14.96 17.748 14.9234 17.6575C14.8869 17.567 14.8324 17.4848 14.7634 17.4158C14.717 17.3694 14.6647 17.3297 14.6079 17.2975L14.415 17.1047C14.3973 17.0883 14.3789 17.0728 14.3599 17.0583C14.3474 17.0394 14.3367 17.0192 14.3279 16.9982C14.3413 16.9828 14.354 16.967 14.366 16.9506L15.5499 15.7677C15.5627 15.7557 15.5751 15.7433 15.587 15.7305L18.7695 12.5504L22.4352 13.093L17.6054 17.9192C17.5989 17.9254 17.5925 17.9317 17.5862 17.9382L16.4292 19.0858C16.3866 19.0661 16.3481 19.0384 16.3159 19.0042C16.268 18.9559 16.214 18.9149 16.1558 18.8821C16.1454 18.8703 16.1346 18.8588 16.1234 18.8476C15.9901 18.7144 15.8104 18.6382 15.6219 18.6348C15.4335 18.6315 15.2512 18.7014 15.1133 18.8298L13.9884 19.9538C13.9197 20.0207 13.8652 20.1006 13.828 20.1888C13.7907 20.277 13.7715 20.3717 13.7715 20.4675C13.7715 20.5632 13.7907 20.6579 13.828 20.7462C13.8652 20.8344 13.9197 20.9142 13.9884 20.981C14.0126 21.0058 14.0386 21.0288 14.0661 21.0497Z" fill="white"/>
</svg>
