<svg width="51" height="50" viewBox="0 0 51 50" fill="none" xmlns="http://www.w3.org/2000/svg">
<rect x="0.820312" width="50" height="50" rx="10" fill="#086AFF"/>
<path d="M11.3311 28.5371V14.3887C11.3311 14.0135 11.48 13.6536 11.7451 13.3883C12.0102 13.1229 12.3697 12.9739 12.7446 12.9739H38.8947C39.2696 12.9739 39.6292 13.1229 39.8942 13.3883C40.1593 13.6536 40.3083 14.0135 40.3083 14.3887V28.5371" stroke="white" stroke-width="1.5" stroke-linecap="round" stroke-linejoin="round"/>
<path d="M29.981 33.7131H20.9521" stroke="white" stroke-width="1.5" stroke-linecap="round" stroke-linejoin="round"/>
<path d="M18.3988 32.0743H9.21094C9.21094 34.0551 10.7658 37.0263 12.7447 37.0263H38.1881C40.1671 37.0263 41.7219 34.0551 41.7219 32.0743H32.534" stroke="white" stroke-width="1.5" stroke-linecap="round" stroke-linejoin="round"/>
<path d="M16.3447 22.826H21.167L23.0154 26.0879L26.3106 18.947L27.1143 22.826H34.5887" stroke="white" stroke-width="1.5" stroke-linecap="round" stroke-linejoin="round"/>
</svg>
